<svg version="1.1" id="Layer_1" xmlns="http://www.w3.org/2000/svg" xmlns:xlink="http://www.w3.org/1999/xlink" x="0px" y="0px"
	 width="100%" viewBox="0 0 595 478" enable-background="new 0 0 595 478" xml:space="preserve">
<path fill="#FFFFFF" opacity="1.000000" stroke="none" 
	d="
M1.000000,442.000000 
	C1.000000,295.088440 1.000000,148.176880 1.000000,1.000000 
	C94.355179,1.000000 187.710617,1.000000 281.412994,1.334856 
	C281.317139,1.823010 280.874329,1.976308 280.042297,2.067614 
	C275.673065,2.370390 271.693024,2.735159 267.247986,3.074468 
	C259.051239,4.614917 251.167389,5.656281 243.616699,7.846342 
	C222.063644,14.097743 202.679794,24.603485 184.413895,37.693604 
	C166.590546,50.466591 151.988434,65.998909 139.541016,83.860680 
	C127.340210,101.368568 118.256897,120.370720 112.696976,140.893250 
	C109.699677,151.956726 107.492958,163.343903 106.214195,174.729324 
	C105.160759,184.108521 105.612465,193.720566 106.111984,203.191727 
	C106.574509,211.961700 107.534294,220.761398 109.063957,229.408463 
	C113.367157,253.733978 122.785339,276.089752 136.258713,296.745361 
	C146.325912,312.179108 158.275070,326.034424 172.434067,337.819855 
	C179.642471,343.819794 187.171234,349.585419 195.170319,354.444275 
	C203.871109,359.729370 213.045395,364.422394 222.455795,368.299469 
	C231.967194,372.218140 242.020660,374.821075 252.060822,378.326111 
	C263.099823,380.050629 273.914673,381.449402 285.163147,382.966003 
	C292.233643,383.390045 298.875793,384.004089 305.505554,383.891327 
	C309.735260,383.819366 313.946655,382.671295 318.537323,382.004272 
	C320.518341,381.616791 322.128265,381.230804 324.214722,380.896179 
	C331.364563,380.966156 338.040710,380.873413 344.710022,381.045563 
	C348.633942,381.146820 352.545868,381.939270 356.465149,381.956268 
	C378.125916,382.050262 399.787537,382.053467 421.448242,381.953583 
	C425.367493,381.935516 429.419403,381.818939 433.178101,380.848907 
	C449.665894,376.593811 464.108337,369.147186 475.228882,355.505585 
	C485.954620,342.348297 491.631134,327.350403 491.802521,310.876770 
	C492.155273,276.970184 491.567383,243.046783 490.881134,209.140121 
	C490.629425,196.703629 488.853271,184.304749 488.046844,171.870911 
	C487.191711,158.686386 483.888489,146.086655 480.062653,133.516006 
	C472.101593,107.358131 458.517670,84.364601 440.446625,64.147713 
	C427.431946,49.587601 412.413116,37.258362 395.239014,27.524950 
	C373.607666,15.265380 350.936646,6.351541 326.211121,2.979834 
	C322.126709,2.422863 318.069672,1.665017 314.000000,1.000000 
	C407.970428,1.000000 501.940826,1.000000 595.955627,1.000000 
	C595.955627,160.253616 595.955627,319.507233 595.955627,478.880432 
	C397.666718,478.880432 199.333374,478.880432 1.000000,478.880432 
	C1.000000,470.928986 1.000000,462.931488 1.363993,454.605286 
	C3.507558,458.369568 4.571753,463.011719 7.208792,466.446289 
	C13.603332,474.774780 22.745237,474.823547 32.211033,473.423889 
	C34.625534,473.066864 37.673489,473.248260 39.667126,474.449280 
	C47.617817,479.239014 47.506889,479.424377 51.350632,471.140869 
	C51.470100,470.883362 51.550461,470.607727 51.510822,470.715118 
	C49.014675,469.320221 46.587097,467.963654 44.161404,466.608154 
	C50.325558,455.411865 51.007393,452.933563 48.926296,440.785950 
	C47.307411,431.336273 43.555042,424.046234 28.293945,421.080566 
	C20.865623,419.637024 9.828683,424.064850 5.465534,431.170227 
	C3.448227,434.455444 2.456633,438.370514 1.000000,442.000000 
M166.506836,447.003448 
	C164.654724,439.641663 162.907150,432.250366 160.845139,424.947845 
	C160.510788,423.763733 158.837692,422.220367 157.687164,422.134674 
	C153.265503,421.805267 148.804703,422.001251 144.250153,422.001251 
	C144.250153,439.208954 144.250153,455.931885 144.250153,472.725281 
	C147.570312,472.725281 150.633560,472.725281 153.771240,472.725281 
	C154.292130,461.830902 154.800186,451.205139 155.369171,439.305054 
	C158.190018,451.275330 160.727356,462.042511 163.252335,472.757263 
	C166.979813,472.757263 170.417572,472.757263 173.751770,472.757263 
	C176.325073,461.884674 178.838577,451.264771 181.352081,440.644867 
	C181.529129,440.686462 181.706192,440.728058 181.883240,440.769653 
	C182.377808,451.448425 182.872375,462.127167 183.360062,472.657227 
	C186.702209,472.657227 189.766815,472.657227 193.000610,472.657227 
	C193.000610,464.003265 193.000626,455.690796 193.000626,447.378326 
	C193.000626,438.964478 193.000610,430.550629 193.000610,421.999084 
	C188.478958,421.999084 184.645218,422.194122 180.841904,421.937836 
	C177.762573,421.730377 176.613892,422.927124 175.927261,425.862274 
	C173.687592,435.436096 171.122879,444.933899 168.412338,455.518707 
	C167.779526,452.167908 167.359772,449.945343 166.506836,447.003448 
M501.473846,454.000000 
	C503.262726,454.000000 505.051636,454.000000 507.935425,454.000000 
	C506.816162,456.973389 506.612366,459.864227 505.069031,461.161377 
	C500.928802,464.641296 495.951599,464.532043 490.733002,463.324402 
	C481.331665,461.148743 479.448883,442.973969 485.122406,436.367462 
	C491.596893,428.828308 500.155518,429.251007 505.822235,437.431274 
	C506.287201,438.102417 507.275116,439.013824 507.850067,438.906158 
	C511.010254,438.314240 514.117432,437.439545 518.981323,436.229370 
	C515.308716,431.627045 513.237610,427.488770 509.901642,425.171356 
	C502.880035,420.293640 494.832886,419.848663 486.743622,422.735931 
	C470.243439,428.625336 467.055084,449.143097 474.720398,463.105896 
	C482.572571,477.409027 504.864624,476.811737 516.067932,467.317108 
	C516.970581,466.552155 517.879211,465.201752 517.910156,464.098816 
	C518.085876,457.838867 517.995300,451.571503 517.995300,445.282288 
	C510.392090,445.282288 503.329254,445.282288 496.305603,445.282288 
	C496.305603,448.303955 496.305603,451.034180 496.305603,454.000000 
	C497.914703,454.000000 499.226654,454.000000 501.473846,454.000000 
M80.224205,436.711578 
	C81.502426,438.920349 82.780647,441.129120 84.047806,443.318756 
	C70.857773,452.066559 72.736237,462.146393 76.828674,468.353577 
	C81.673546,475.701935 99.290215,476.261566 105.644485,469.250885 
	C115.209541,474.638947 115.209541,474.638947 119.965797,466.400604 
	C117.612801,464.754456 115.247459,463.099670 113.029495,461.548004 
	C114.354897,457.605133 115.570328,453.989380 116.930473,449.943146 
	C112.749481,450.815643 107.710884,445.145874 105.459068,453.239624 
	C103.299324,450.375763 101.566757,448.078369 99.683098,445.580597 
	C101.309418,444.250732 102.730354,443.144470 104.089844,441.967224 
	C109.069916,437.654755 109.479218,430.142456 105.009140,425.522034 
	C100.462723,420.822693 94.007637,419.878021 86.940117,422.490997 
	C80.408760,424.905731 79.447472,429.943909 80.224205,436.711578 
M247.528122,421.991302 
	C239.712753,419.935608 232.735352,421.901337 226.686676,426.897125 
	C219.367172,432.942596 218.919968,441.334351 218.907135,450.094879 
	C218.879684,468.840485 233.554901,476.552246 249.400345,473.577576 
	C253.576126,472.793701 257.597229,469.490265 260.978882,466.531738 
	C267.626373,460.716003 266.913635,452.542419 267.064972,444.638611 
	C267.249054,435.023224 260.418091,423.267273 247.528122,421.991302 
M445.000000,449.500000 
	C445.000000,440.415680 445.000000,431.331360 445.000000,422.311707 
	C441.347595,422.311707 438.285278,422.311707 435.000000,422.311707 
	C435.000000,425.263123 435.000000,427.903900 435.000000,430.544647 
	C435.000000,433.173798 435.000000,435.802948 435.000000,438.617889 
	C433.997070,438.309753 433.153046,438.212860 432.482544,437.819824 
	C424.137238,432.928497 415.863129,435.293243 411.613312,443.868469 
	C408.993011,449.155792 408.915802,454.685699 409.968719,460.386688 
	C411.071625,466.358154 413.703644,471.022369 419.708435,473.211273 
	C424.924164,475.112549 429.601257,474.105499 433.849457,470.661987 
	C434.445526,470.178802 435.072571,469.733765 435.838928,469.155060 
	C436.002625,470.630524 436.124176,471.726318 436.231262,472.691742 
	C439.281616,472.691742 442.023895,472.691742 445.000000,472.691742 
	C445.000000,465.090698 445.000000,457.795319 445.000000,449.500000 
M349.848816,471.657593 
	C350.495087,471.223816 351.141357,470.790039 351.787659,470.356293 
	C354.600220,475.244049 359.054047,472.167694 362.319244,472.853027 
	C361.865631,468.483612 361.234009,464.323181 361.051361,460.143066 
	C360.833435,455.155792 361.063232,450.150635 360.982422,445.155090 
	C360.902924,440.239136 357.346771,436.496124 352.555634,435.978882 
	C351.117218,435.823578 349.703766,435.421051 348.284637,435.105713 
	C340.190094,433.307220 331.899750,438.425323 330.042572,446.583649 
	C334.158508,447.746796 338.125031,450.118469 341.419891,444.515228 
	C342.128967,443.309357 346.123077,443.087891 348.050812,443.836823 
	C349.678986,444.469360 350.505707,447.164795 352.089752,449.554626 
	C346.739044,450.571533 342.736176,451.180420 338.808350,452.107239 
	C327.154938,454.857086 326.961029,464.985046 331.368958,470.687042 
	C333.754333,473.772766 342.130463,476.156769 349.848816,471.657593 
M538.751038,435.004181 
	C531.849182,435.919891 526.156067,438.299225 525.007812,446.471527 
	C528.984375,447.950409 532.595337,449.689331 536.002930,444.851135 
	C536.992065,443.446625 540.743042,442.871429 542.643494,443.550812 
	C544.403137,444.179840 545.381287,446.994995 547.058105,449.344116 
	C540.861755,450.766266 535.753357,451.650757 530.830750,453.146515 
	C525.510315,454.763153 523.460205,458.944061 524.001587,465.663849 
	C524.333374,469.782257 527.716064,473.792145 532.385620,473.802124 
	C537.222046,473.812469 542.061584,472.383392 546.980042,471.570648 
	C549.842468,474.512024 553.948486,472.712616 557.313782,472.685150 
	C556.836853,469.068665 556.179626,465.906891 556.054871,462.724213 
	C555.852844,457.569183 556.062195,452.399445 555.983032,447.237701 
	C555.904602,442.126953 553.916565,438.006165 548.793274,436.404510 
	C545.877258,435.492889 542.693054,435.439392 538.751038,435.004181 
M572.081543,446.438904 
	C574.805481,442.590851 579.139648,441.254028 581.725586,444.564789 
	C585.665344,449.608948 589.529907,448.026886 593.966980,446.545380 
	C590.633972,433.419312 575.678345,433.242096 566.948669,437.712128 
	C562.519775,439.979919 561.028564,447.037140 563.200073,451.556244 
	C565.814453,456.997070 571.238037,457.462524 576.073608,459.003479 
	C579.152222,459.984558 582.223450,460.988647 585.704895,462.113922 
	C580.609009,468.187653 576.007019,467.275452 570.580017,460.398743 
	C567.293091,460.734558 564.168518,461.053772 561.010376,461.376404 
	C564.138550,473.990997 581.828918,479.012543 591.185303,470.324829 
	C598.372742,463.650970 596.558838,454.895386 587.262634,451.714630 
	C582.408264,450.053619 577.484375,448.595886 572.081543,446.438904 
M380.000671,458.552643 
	C380.337402,454.817413 380.000061,450.829742 381.268219,447.443298 
	C382.007935,445.467957 385.190826,443.561157 387.501007,443.236877 
	C390.319214,442.841156 391.865753,445.314423 392.032288,448.363190 
	C392.218994,451.781586 392.838989,455.179657 392.958496,458.597504 
	C393.124512,463.346283 393.000244,468.105194 393.000244,472.632812 
	C396.749878,472.632812 399.813446,472.632812 403.000458,472.632812 
	C403.000458,463.785828 403.097015,455.304138 402.973114,446.825623 
	C402.851074,438.471649 395.581024,433.344238 387.151550,435.992371 
	C384.419098,436.850769 381.838623,438.193085 379.161285,439.325653 
	C379.041626,438.421143 378.897461,437.331268 378.754761,436.252319 
	C375.853027,436.252319 373.095886,436.252319 370.262634,436.252319 
	C370.262634,448.564209 370.262634,460.621124 370.262634,472.715179 
	C373.593658,472.715179 376.655792,472.715179 380.000671,472.715179 
	C380.000671,468.133118 380.000671,463.832733 380.000671,458.552643 
M302.999756,458.495117 
	C302.999756,446.419312 302.999756,434.343475 302.999756,422.302673 
	C299.363861,422.302673 296.302582,422.302673 293.282898,422.302673 
	C293.282898,439.313812 293.282898,456.019653 293.282898,472.695435 
	C296.634705,472.695435 299.695709,472.695435 302.999756,472.695435 
	C302.999756,468.092743 302.999756,463.792236 302.999756,458.495117 
M283.999725,441.611786 
	C283.999725,439.841003 283.999725,438.070190 283.999725,436.285339 
	C280.395386,436.285339 277.336029,436.285339 274.272217,436.285339 
	C274.272217,448.616821 274.272217,460.659882 274.272217,472.708588 
	C277.612335,472.708588 280.671326,472.708588 283.999725,472.708588 
	C283.999725,462.474396 283.999725,452.529724 283.999725,441.611786 
M283.999420,426.495483 
	C283.915588,425.069458 283.831757,423.643463 283.753143,422.305817 
	C280.326569,422.305817 277.269684,422.305817 274.313232,422.305817 
	C274.313232,425.343353 274.313232,428.066467 274.313232,430.998749 
	C276.760132,430.998749 278.916016,430.809448 281.024841,431.043793 
	C284.076385,431.382843 284.205688,429.621033 283.999420,426.495483 
z"/>
<path fill="#2E2E6B" opacity="1.000000" stroke="none" 
	d="
M318.166260,382.005707 
	C313.946655,382.671295 309.735260,383.819366 305.505554,383.891327 
	C298.875793,384.004089 292.233643,383.390045 284.940826,382.744202 
	C280.751953,379.757935 276.788605,377.517792 273.801727,374.355408 
	C270.524658,370.885773 268.099030,366.599030 265.386475,362.611145 
	C245.607254,333.532166 242.006256,302.496582 254.131882,269.543915 
	C260.838470,251.318085 270.699554,234.760162 281.126892,218.519501 
	C294.239410,198.096634 308.150269,178.157303 320.566254,157.323730 
	C335.441223,132.364120 335.407562,106.462120 323.280212,79.995392 
	C312.327637,56.092659 297.725525,34.534992 282.843262,12.697262 
	C281.573334,10.394049 280.534058,8.302491 279.122162,6.503355 
	C277.334381,4.225262 278.380096,3.100958 280.431519,2.129605 
	C280.874329,1.976308 281.317139,1.823010 281.879974,1.334856 
	C292.354218,1.000000 302.708466,1.000000 313.531342,1.000000 
	C318.069672,1.665017 322.126709,2.422863 326.211121,2.979834 
	C350.936646,6.351541 373.607666,15.265380 395.239014,27.524950 
	C412.413116,37.258362 427.431946,49.587601 440.446625,64.147713 
	C458.517670,84.364601 472.101593,107.358131 480.062653,133.516006 
	C483.888489,146.086655 487.191711,158.686386 488.046844,171.870911 
	C488.853271,184.304749 490.629425,196.703629 490.881134,209.140121 
	C491.567383,243.046783 492.155273,276.970184 491.802521,310.876770 
	C491.631134,327.350403 485.954620,342.348297 475.228882,355.505585 
	C464.108337,369.147186 449.665894,376.593811 433.178101,380.848907 
	C429.419403,381.818939 425.367493,381.935516 421.448242,381.953583 
	C399.787537,382.053467 378.125916,382.050262 356.465149,381.956268 
	C352.545868,381.939270 348.633942,381.146820 344.710022,381.045563 
	C338.040710,380.873413 331.364563,380.966156 324.282776,380.535828 
	C325.030121,377.742249 325.779205,375.027100 327.411407,373.035767 
	C334.892365,363.908875 342.411407,354.796448 350.303192,346.026581 
	C366.781769,327.714569 383.686432,309.812836 395.470642,287.814606 
	C412.755157,255.548691 409.275726,224.528778 390.612366,194.234619 
	C389.766083,192.860977 388.381317,191.819061 387.247375,190.622650 
	C391.145081,210.163589 386.542786,227.939804 379.217590,245.297409 
	C370.018097,267.096222 356.406982,286.239471 342.447784,305.094513 
	C325.478180,328.015747 317.070038,353.466888 318.166260,382.005707 
M321.806122,227.295349 
	C310.346375,245.051041 298.604462,262.632568 287.505249,280.610809 
	C276.138489,299.022430 277.709564,318.066193 286.642242,336.907471 
	C289.301086,342.515686 292.571106,347.937714 297.598053,350.329865 
	C297.598053,344.369873 297.136688,338.254486 297.691956,332.232849 
	C298.934875,318.753693 305.157562,307.082855 312.503204,296.103455 
	C324.446777,278.251678 336.988892,260.800659 348.951874,242.961472 
	C368.653564,213.582230 373.977417,182.461716 359.228333,149.263031 
	C357.553772,145.493713 355.255249,142.001617 353.246063,138.380966 
	C352.829987,138.573456 352.413910,138.765945 351.997833,138.958420 
	C351.997833,141.591507 351.987335,144.224625 351.999573,146.857635 
	C352.070801,162.189667 349.976349,177.260941 343.030182,190.972107 
	C336.812042,203.246185 329.180847,214.804367 321.806122,227.295349 
z"/>
<path fill="#2D2E6B" opacity="1.000000" stroke="none" 
	d="
M1.000000,442.460632 
	C2.456633,438.370514 3.448227,434.455444 5.465534,431.170227 
	C9.828683,424.064850 20.865623,419.637024 28.293945,421.080566 
	C43.555042,424.046234 47.307411,431.336273 48.926296,440.785950 
	C51.007393,452.933563 50.325558,455.411865 44.161404,466.608154 
	C46.587097,467.963654 49.014675,469.320221 51.510822,470.715118 
	C51.550461,470.607727 51.470100,470.883362 51.350632,471.140869 
	C47.506889,479.424377 47.617817,479.239014 39.667126,474.449280 
	C37.673489,473.248260 34.625534,473.066864 32.211033,473.423889 
	C22.745237,474.823547 13.603332,474.774780 7.208792,466.446289 
	C4.571753,463.011719 3.507558,458.369568 1.363993,454.138306 
	C1.000000,450.307098 1.000000,446.614166 1.000000,442.460632 
M25.447906,463.003418 
	C20.218851,459.998779 25.548124,457.705505 25.498833,454.789734 
	C28.040993,456.029449 30.132534,456.926666 32.102608,458.039032 
	C35.018711,459.685577 35.967773,459.012878 37.266342,455.712769 
	C39.255871,450.656738 39.238434,445.774963 37.856125,440.945404 
	C35.150043,431.490845 24.067108,427.498535 16.668280,434.814606 
	C10.312441,441.099304 10.726689,453.655090 16.052816,460.468048 
	C18.490923,463.586761 22.932316,464.510010 25.447906,463.003418 
z"/>
<path fill="#2D2E6B" opacity="1.000000" stroke="none" 
	d="
M251.836670,378.000397 
	C242.020660,374.821075 231.967194,372.218140 222.455795,368.299469 
	C213.045395,364.422394 203.871109,359.729370 195.170319,354.444275 
	C187.171234,349.585419 179.642471,343.819794 172.434067,337.819855 
	C158.275070,326.034424 146.325912,312.179108 136.258713,296.745361 
	C122.785339,276.089752 113.367157,253.733978 109.063957,229.408463 
	C107.534294,220.761398 106.574509,211.961700 106.111984,203.191727 
	C105.612465,193.720566 105.160759,184.108521 106.214195,174.729324 
	C107.492958,163.343903 109.699677,151.956726 112.696976,140.893250 
	C118.256897,120.370720 127.340210,101.368568 139.541016,83.860680 
	C151.988434,65.998909 166.590546,50.466591 184.413895,37.693604 
	C202.679794,24.603485 222.063644,14.097743 243.616699,7.846342 
	C251.167389,5.656281 259.051239,4.614917 267.515503,3.230969 
	C273.953125,2.292835 277.402527,4.766929 279.298645,10.086402 
	C279.822510,11.556097 281.026917,12.783216 281.990143,14.469154 
	C287.010284,23.904938 291.261993,33.137455 292.082947,43.759945 
	C293.464172,61.632698 287.281036,77.424377 279.520782,92.867851 
	C263.567291,124.616341 243.129135,153.629486 224.110794,183.505554 
	C210.700363,204.572128 197.570389,225.778381 189.674408,249.691193 
	C181.081421,275.714752 182.611481,300.783966 197.277390,324.453491 
	C208.350510,342.324585 223.248932,356.374908 240.839615,367.698120 
	C244.195541,369.858307 247.647705,371.894501 250.816345,374.302551 
	C251.625732,374.917664 251.521271,376.735260 251.836670,378.000397 
z"/>
<path fill="#FDC938" opacity="1.000000" stroke="none" 
	d="
M252.060822,378.326111 
	C251.521271,376.735260 251.625732,374.917664 250.816345,374.302551 
	C247.647705,371.894501 244.195541,369.858307 240.839615,367.698120 
	C223.248932,356.374908 208.350510,342.324585 197.277390,324.453491 
	C182.611481,300.783966 181.081421,275.714752 189.674408,249.691193 
	C197.570389,225.778381 210.700363,204.572128 224.110794,183.505554 
	C243.129135,153.629486 263.567291,124.616341 279.520782,92.867851 
	C287.281036,77.424377 293.464172,61.632698 292.082947,43.759945 
	C291.261993,33.137455 287.010284,23.904938 282.107910,14.247022 
	C282.405853,13.464510 282.657135,13.251647 282.908417,13.038789 
	C297.725525,34.534992 312.327637,56.092659 323.280212,79.995392 
	C335.407562,106.462120 335.441223,132.364120 320.566254,157.323730 
	C308.150269,178.157303 294.239410,198.096634 281.126892,218.519501 
	C270.699554,234.760162 260.838470,251.318085 254.131882,269.543915 
	C242.006256,302.496582 245.607254,333.532166 265.386475,362.611145 
	C268.099030,366.599030 270.524658,370.885773 273.801727,374.355408 
	C276.788605,377.517792 280.751953,379.757935 284.507202,382.626373 
	C273.914673,381.449402 263.099823,380.050629 252.060822,378.326111 
z"/>
<path fill="#FCC839" opacity="1.000000" stroke="none" 
	d="
M318.537323,382.004272 
	C317.070038,353.466888 325.478180,328.015747 342.447784,305.094513 
	C356.406982,286.239471 370.018097,267.096222 379.217590,245.297409 
	C386.542786,227.939804 391.145081,210.163589 387.247375,190.622650 
	C388.381317,191.819061 389.766083,192.860977 390.612366,194.234619 
	C409.275726,224.528778 412.755157,255.548691 395.470642,287.814606 
	C383.686432,309.812836 366.781769,327.714569 350.303192,346.026581 
	C342.411407,354.796448 334.892365,363.908875 327.411407,373.035767 
	C325.779205,375.027100 325.030121,377.742249 323.806244,380.484406 
	C322.128265,381.230804 320.518341,381.616791 318.537323,382.004272 
z"/>
<path fill="#2D2E6B" opacity="1.000000" stroke="none" 
	d="
M166.723419,447.363098 
	C167.359772,449.945343 167.779526,452.167908 168.412338,455.518707 
	C171.122879,444.933899 173.687592,435.436096 175.927261,425.862274 
	C176.613892,422.927124 177.762573,421.730377 180.841904,421.937836 
	C184.645218,422.194122 188.478958,421.999084 193.000610,421.999084 
	C193.000610,430.550629 193.000626,438.964478 193.000626,447.378326 
	C193.000626,455.690796 193.000610,464.003265 193.000610,472.657227 
	C189.766815,472.657227 186.702209,472.657227 183.360062,472.657227 
	C182.872375,462.127167 182.377808,451.448425 181.883240,440.769653 
	C181.706192,440.728058 181.529129,440.686462 181.352081,440.644867 
	C178.838577,451.264771 176.325073,461.884674 173.751770,472.757263 
	C170.417572,472.757263 166.979813,472.757263 163.252335,472.757263 
	C160.727356,462.042511 158.190018,451.275330 155.369171,439.305054 
	C154.800186,451.205139 154.292130,461.830902 153.771240,472.725281 
	C150.633560,472.725281 147.570312,472.725281 144.250153,472.725281 
	C144.250153,455.931885 144.250153,439.208954 144.250153,422.001251 
	C148.804703,422.001251 153.265503,421.805267 157.687164,422.134674 
	C158.837692,422.220367 160.510788,423.763733 160.845139,424.947845 
	C162.907150,432.250366 164.654724,439.641663 166.723419,447.363098 
z"/>
<path fill="#2D2E6B" opacity="1.000000" stroke="none" 
	d="
M501.006226,454.000000 
	C499.226654,454.000000 497.914703,454.000000 496.305603,454.000000 
	C496.305603,451.034180 496.305603,448.303955 496.305603,445.282288 
	C503.329254,445.282288 510.392090,445.282288 517.995300,445.282288 
	C517.995300,451.571503 518.085876,457.838867 517.910156,464.098816 
	C517.879211,465.201752 516.970581,466.552155 516.067932,467.317108 
	C504.864624,476.811737 482.572571,477.409027 474.720398,463.105896 
	C467.055084,449.143097 470.243439,428.625336 486.743622,422.735931 
	C494.832886,419.848663 502.880035,420.293640 509.901642,425.171356 
	C513.237610,427.488770 515.308716,431.627045 518.981323,436.229370 
	C514.117432,437.439545 511.010254,438.314240 507.850067,438.906158 
	C507.275116,439.013824 506.287201,438.102417 505.822235,437.431274 
	C500.155518,429.251007 491.596893,428.828308 485.122406,436.367462 
	C479.448883,442.973969 481.331665,461.148743 490.733002,463.324402 
	C495.951599,464.532043 500.928802,464.641296 505.069031,461.161377 
	C506.612366,459.864227 506.816162,456.973389 507.935425,454.000000 
	C505.051636,454.000000 503.262726,454.000000 501.006226,454.000000 
z"/>
<path fill="#2D2E6B" opacity="1.000000" stroke="none" 
	d="
M80.124222,436.303833 
	C79.447472,429.943909 80.408760,424.905731 86.940117,422.490997 
	C94.007637,419.878021 100.462723,420.822693 105.009140,425.522034 
	C109.479218,430.142456 109.069916,437.654755 104.089844,441.967224 
	C102.730354,443.144470 101.309418,444.250732 99.683098,445.580597 
	C101.566757,448.078369 103.299324,450.375763 105.459068,453.239624 
	C107.710884,445.145874 112.749481,450.815643 116.930473,449.943146 
	C115.570328,453.989380 114.354897,457.605133 113.029495,461.548004 
	C115.247459,463.099670 117.612801,464.754456 119.965797,466.400604 
	C115.209541,474.638947 115.209541,474.638947 105.644485,469.250885 
	C99.290215,476.261566 81.673546,475.701935 76.828674,468.353577 
	C72.736237,462.146393 70.857773,452.066559 84.047806,443.318756 
	C82.780647,441.129120 81.502426,438.920349 80.124222,436.303833 
M84.044022,460.137421 
	C87.575600,466.578217 93.732964,467.073334 98.663055,461.270477 
	C96.567230,458.798004 93.920807,456.596039 92.487747,453.777191 
	C90.136116,449.151520 88.009750,450.902557 86.080231,453.597382 
	C84.940826,455.188751 84.667870,457.400482 84.044022,460.137421 
M95.927605,429.421204 
	C94.002937,430.129974 92.078278,430.838776 90.153610,431.547546 
	C91.207748,433.601410 92.032867,435.854950 93.505363,437.544128 
	C93.807144,437.890289 96.926147,436.483124 98.055313,435.250824 
	C100.052361,433.071259 98.784233,431.221252 95.927605,429.421204 
z"/>
<path fill="#2D2E6B" opacity="1.000000" stroke="none" 
	d="
M247.956787,421.995300 
	C260.418091,423.267273 267.249054,435.023224 267.064972,444.638611 
	C266.913635,452.542419 267.626373,460.716003 260.978882,466.531738 
	C257.597229,469.490265 253.576126,472.793701 249.400345,473.577576 
	C233.554901,476.552246 218.879684,468.840485 218.907135,450.094879 
	C218.919968,441.334351 219.367172,432.942596 226.686676,426.897125 
	C232.735352,421.901337 239.712753,419.935608 247.956787,421.995300 
M232.408249,437.057648 
	C228.459564,444.022675 228.964340,451.247864 232.156662,458.099365 
	C234.338852,462.782867 238.733124,464.344910 244.112579,464.136078 
	C248.907959,463.949890 251.974747,461.614868 253.937653,457.901611 
	C257.152222,451.820648 257.242004,445.029755 254.767685,438.906799 
	C250.772781,429.021027 238.271790,428.566559 232.408249,437.057648 
z"/>
<path fill="#2D2E6B" opacity="1.000000" stroke="none" 
	d="
M445.000000,450.000000 
	C445.000000,457.795319 445.000000,465.090698 445.000000,472.691742 
	C442.023895,472.691742 439.281616,472.691742 436.231262,472.691742 
	C436.124176,471.726318 436.002625,470.630524 435.838928,469.155060 
	C435.072571,469.733765 434.445526,470.178802 433.849457,470.661987 
	C429.601257,474.105499 424.924164,475.112549 419.708435,473.211273 
	C413.703644,471.022369 411.071625,466.358154 409.968719,460.386688 
	C408.915802,454.685699 408.993011,449.155792 411.613312,443.868469 
	C415.863129,435.293243 424.137238,432.928497 432.482544,437.819824 
	C433.153046,438.212860 433.997070,438.309753 435.000000,438.617889 
	C435.000000,435.802948 435.000000,433.173798 435.000000,430.544647 
	C435.000000,427.903900 435.000000,425.263123 435.000000,422.311707 
	C438.285278,422.311707 441.347595,422.311707 445.000000,422.311707 
	C445.000000,431.331360 445.000000,440.415680 445.000000,450.000000 
M420.846588,460.370026 
	C422.573395,462.245575 424.032867,465.162720 426.104523,465.694336 
	C428.051544,466.193939 431.650177,464.833466 432.761444,463.137604 
	C435.836182,458.445557 436.107147,452.817871 433.682922,447.795074 
	C432.657196,445.669861 429.545410,443.426117 427.306732,443.346497 
	C425.299530,443.275116 422.004181,445.728027 421.379974,447.724762 
	C420.205414,451.481812 420.545959,455.712555 420.846588,460.370026 
z"/>
<path fill="#2D2E6B" opacity="1.000000" stroke="none" 
	d="
M349.496216,471.818604 
	C342.130463,476.156769 333.754333,473.772766 331.368958,470.687042 
	C326.961029,464.985046 327.154938,454.857086 338.808350,452.107239 
	C342.736176,451.180420 346.739044,450.571533 352.089752,449.554626 
	C350.505707,447.164795 349.678986,444.469360 348.050812,443.836823 
	C346.123077,443.087891 342.128967,443.309357 341.419891,444.515228 
	C338.125031,450.118469 334.158508,447.746796 330.042572,446.583649 
	C331.899750,438.425323 340.190094,433.307220 348.284637,435.105713 
	C349.703766,435.421051 351.117218,435.823578 352.555634,435.978882 
	C357.346771,436.496124 360.902924,440.239136 360.982422,445.155090 
	C361.063232,450.150635 360.833435,455.155792 361.051361,460.143066 
	C361.234009,464.323181 361.865631,468.483612 362.319244,472.853027 
	C359.054047,472.167694 354.600220,475.244049 351.787659,470.356293 
	C351.141357,470.790039 350.495087,471.223816 349.496216,471.818604 
M348.307587,457.996735 
	C346.002106,458.643433 343.621704,459.109192 341.425110,460.018829 
	C340.434570,460.428986 339.148926,461.753571 339.187592,462.609497 
	C339.235779,463.676147 340.303314,465.014557 341.302704,465.655426 
	C343.506012,467.068298 349.240265,465.217773 350.581909,462.908630 
	C351.721222,460.947723 350.933807,458.274994 348.307587,457.996735 
z"/>
<path fill="#2D2E6B" opacity="1.000000" stroke="none" 
	d="
M539.190308,435.001831 
	C542.693054,435.439392 545.877258,435.492889 548.793274,436.404510 
	C553.916565,438.006165 555.904602,442.126953 555.983032,447.237701 
	C556.062195,452.399445 555.852844,457.569183 556.054871,462.724213 
	C556.179626,465.906891 556.836853,469.068665 557.313782,472.685150 
	C553.948486,472.712616 549.842468,474.512024 546.980042,471.570648 
	C542.061584,472.383392 537.222046,473.812469 532.385620,473.802124 
	C527.716064,473.792145 524.333374,469.782257 524.001587,465.663849 
	C523.460205,458.944061 525.510315,454.763153 530.830750,453.146515 
	C535.753357,451.650757 540.861755,450.766266 547.058105,449.344116 
	C545.381287,446.994995 544.403137,444.179840 542.643494,443.550812 
	C540.743042,442.871429 536.992065,443.446625 536.002930,444.851135 
	C532.595337,449.689331 528.984375,447.950409 525.007812,446.471527 
	C526.156067,438.299225 531.849182,435.919891 539.190308,435.001831 
M535.662598,465.112030 
	C542.813232,467.410553 546.338745,464.687134 545.610168,457.185211 
	C542.556580,458.097961 539.541809,458.977905 536.540771,459.902405 
	C533.833252,460.736511 533.031372,462.218048 535.662598,465.112030 
z"/>
<path fill="#2D2E6B" opacity="1.000000" stroke="none" 
	d="
M572.336670,446.742615 
	C577.484375,448.595886 582.408264,450.053619 587.262634,451.714630 
	C596.558838,454.895386 598.372742,463.650970 591.185303,470.324829 
	C581.828918,479.012543 564.138550,473.990997 561.010376,461.376404 
	C564.168518,461.053772 567.293091,460.734558 570.580017,460.398743 
	C576.007019,467.275452 580.609009,468.187653 585.704895,462.113922 
	C582.223450,460.988647 579.152222,459.984558 576.073608,459.003479 
	C571.238037,457.462524 565.814453,456.997070 563.200073,451.556244 
	C561.028564,447.037140 562.519775,439.979919 566.948669,437.712128 
	C575.678345,433.242096 590.633972,433.419312 593.966980,446.545380 
	C589.529907,448.026886 585.665344,449.608948 581.725586,444.564789 
	C579.139648,441.254028 574.805481,442.590851 572.336670,446.742615 
z"/>
<path fill="#2D2E6B" opacity="1.000000" stroke="none" 
	d="
M380.000671,459.042480 
	C380.000671,463.832733 380.000671,468.133118 380.000671,472.715179 
	C376.655792,472.715179 373.593658,472.715179 370.262634,472.715179 
	C370.262634,460.621124 370.262634,448.564209 370.262634,436.252319 
	C373.095886,436.252319 375.853027,436.252319 378.754761,436.252319 
	C378.897461,437.331268 379.041626,438.421143 379.161285,439.325653 
	C381.838623,438.193085 384.419098,436.850769 387.151550,435.992371 
	C395.581024,433.344238 402.851074,438.471649 402.973114,446.825623 
	C403.097015,455.304138 403.000458,463.785828 403.000458,472.632812 
	C399.813446,472.632812 396.749878,472.632812 393.000244,472.632812 
	C393.000244,468.105194 393.124512,463.346283 392.958496,458.597504 
	C392.838989,455.179657 392.218994,451.781586 392.032288,448.363190 
	C391.865753,445.314423 390.319214,442.841156 387.501007,443.236877 
	C385.190826,443.561157 382.007935,445.467957 381.268219,447.443298 
	C380.000061,450.829742 380.337402,454.817413 380.000671,459.042480 
z"/>
<path fill="#2D2E6B" opacity="1.000000" stroke="none" 
	d="
M302.999756,458.993439 
	C302.999756,463.792236 302.999756,468.092743 302.999756,472.695435 
	C299.695709,472.695435 296.634705,472.695435 293.282898,472.695435 
	C293.282898,456.019653 293.282898,439.313812 293.282898,422.302673 
	C296.302582,422.302673 299.363861,422.302673 302.999756,422.302673 
	C302.999756,434.343475 302.999756,446.419312 302.999756,458.993439 
z"/>
<path fill="#2D2E6B" opacity="1.000000" stroke="none" 
	d="
M283.999725,442.098389 
	C283.999725,452.529724 283.999725,462.474396 283.999725,472.708588 
	C280.671326,472.708588 277.612335,472.708588 274.272217,472.708588 
	C274.272217,460.659882 274.272217,448.616821 274.272217,436.285339 
	C277.336029,436.285339 280.395386,436.285339 283.999725,436.285339 
	C283.999725,438.070190 283.999725,439.841003 283.999725,442.098389 
z"/>
<path fill="#2D2E6B" opacity="1.000000" stroke="none" 
	d="
M283.999359,426.965973 
	C284.205688,429.621033 284.076385,431.382843 281.024841,431.043793 
	C278.916016,430.809448 276.760132,430.998749 274.313232,430.998749 
	C274.313232,428.066467 274.313232,425.343353 274.313232,422.305817 
	C277.269684,422.305817 280.326569,422.305817 283.753143,422.305817 
	C283.831757,423.643463 283.915588,425.069458 283.999359,426.965973 
z"/>
<path fill="#DCB040" opacity="1.000000" stroke="none" 
	d="
M282.843262,12.697256 
	C282.657135,13.251647 282.405853,13.464510 282.036804,13.899506 
	C281.026917,12.783216 279.822510,11.556097 279.298645,10.086402 
	C277.402527,4.766929 273.953125,2.292835 267.980530,3.256429 
	C271.693024,2.735159 275.673065,2.370390 280.042297,2.067613 
	C278.380096,3.100958 277.334381,4.225262 279.122162,6.503355 
	C280.534058,8.302491 281.573334,10.394049 282.843262,12.697256 
z"/>
<path fill="#FCC331" opacity="1.000000" stroke="none" 
	d="
M321.989624,226.986877 
	C329.180847,214.804367 336.812042,203.246185 343.030182,190.972107 
	C349.976349,177.260941 352.070801,162.189667 351.999573,146.857635 
	C351.987335,144.224625 351.997833,141.591507 351.997833,138.958420 
	C352.413910,138.765945 352.829987,138.573456 353.246063,138.380966 
	C355.255249,142.001617 357.553772,145.493713 359.228333,149.263031 
	C373.977417,182.461716 368.653564,213.582230 348.951874,242.961472 
	C336.988892,260.800659 324.446777,278.251678 312.503204,296.103455 
	C305.157562,307.082855 298.934875,318.753693 297.691956,332.232849 
	C297.136688,338.254486 297.598053,344.369873 297.598053,350.329865 
	C292.571106,347.937714 289.301086,342.515686 286.642242,336.907471 
	C277.709564,318.066193 276.138489,299.022430 287.505249,280.610809 
	C298.604462,262.632568 310.346375,245.051041 321.989624,226.986877 
z"/>
<path fill="#FFFFFF" opacity="1.000000" stroke="none" 
	d="
M25.824799,463.046692 
	C22.932316,464.510010 18.490923,463.586761 16.052816,460.468048 
	C10.726689,453.655090 10.312441,441.099304 16.668280,434.814606 
	C24.067108,427.498535 35.150043,431.490845 37.856125,440.945404 
	C39.238434,445.774963 39.255871,450.656738 37.266342,455.712769 
	C35.967773,459.012878 35.018711,459.685577 32.102608,458.039032 
	C30.132534,456.926666 28.040993,456.029449 25.498833,454.789734 
	C25.548124,457.705505 20.218851,459.998779 25.824799,463.046692 
z"/>
<path fill="#FFFFFF" opacity="1.000000" stroke="none" 
	d="
M84.024643,459.735352 
	C84.667870,457.400482 84.940826,455.188751 86.080231,453.597382 
	C88.009750,450.902557 90.136116,449.151520 92.487747,453.777191 
	C93.920807,456.596039 96.567230,458.798004 98.663055,461.270477 
	C93.732964,467.073334 87.575600,466.578217 84.024643,459.735352 
z"/>
<path fill="#FFFFFF" opacity="1.000000" stroke="none" 
	d="
M96.229752,429.677979 
	C98.784233,431.221252 100.052361,433.071259 98.055313,435.250824 
	C96.926147,436.483124 93.807144,437.890289 93.505363,437.544128 
	C92.032867,435.854950 91.207748,433.601410 90.153610,431.547546 
	C92.078278,430.838776 94.002937,430.129974 96.229752,429.677979 
z"/>
<path fill="#FFFFFF" opacity="1.000000" stroke="none" 
	d="
M232.668091,436.760498 
	C238.271790,428.566559 250.772781,429.021027 254.767685,438.906799 
	C257.242004,445.029755 257.152222,451.820648 253.937653,457.901611 
	C251.974747,461.614868 248.907959,463.949890 244.112579,464.136078 
	C238.733124,464.344910 234.338852,462.782867 232.156662,458.099365 
	C228.964340,451.247864 228.459564,444.022675 232.668091,436.760498 
z"/>
<path fill="#FFFFFF" opacity="1.000000" stroke="none" 
	d="
M420.551575,460.058167 
	C420.545959,455.712555 420.205414,451.481812 421.379974,447.724762 
	C422.004181,445.728027 425.299530,443.275116 427.306732,443.346497 
	C429.545410,443.426117 432.657196,445.669861 433.682922,447.795074 
	C436.107147,452.817871 435.836182,458.445557 432.761444,463.137604 
	C431.650177,464.833466 428.051544,466.193939 426.104523,465.694336 
	C424.032867,465.162720 422.573395,462.245575 420.551575,460.058167 
z"/>
<path fill="#FFFFFF" opacity="1.000000" stroke="none" 
	d="
M348.715881,457.978760 
	C350.933807,458.274994 351.721222,460.947723 350.581909,462.908630 
	C349.240265,465.217773 343.506012,467.068298 341.302704,465.655426 
	C340.303314,465.014557 339.235779,463.676147 339.187592,462.609497 
	C339.148926,461.753571 340.434570,460.428986 341.425110,460.018829 
	C343.621704,459.109192 346.002106,458.643433 348.715881,457.978760 
z"/>
<path fill="#FFFFFF" opacity="1.000000" stroke="none" 
	d="
M535.359985,464.843872 
	C533.031372,462.218048 533.833252,460.736511 536.540771,459.902405 
	C539.541809,458.977905 542.556580,458.097961 545.610168,457.185211 
	C546.338745,464.687134 542.813232,467.410553 535.359985,464.843872 
z"/>
</svg>