<svg width="36" height="36" viewBox="0 0 36 36" fill="none" xmlns="http://www.w3.org/2000/svg">
<path d="M22.6968 3.75C21.2193 3.26333 19.6404 3 18 3C9.71572 3 3 9.71572 3 18C3 26.2842 9.71572 33 18 33C26.2842 33 33 26.2842 33 18C33 16.4322 32.7594 14.9206 32.3133 13.5" fill="#FECA38"/>
<path d="M22.6968 3.75C21.2193 3.26333 19.6404 3 18 3C9.71572 3 3 9.71572 3 18C3 26.2842 9.71572 33 18 33C26.2842 33 33 26.2842 33 18C33 16.4322 32.7594 14.9206 32.3133 13.5" stroke="#665116" stroke-width="2.25" stroke-linecap="round"/>
<path d="M25.5 18C25.5 22.1421 22.1421 25.5 18 25.5C13.8579 25.5 10.5 22.1421 10.5 18C10.5 13.8579 13.8579 10.5 18 10.5" stroke="#665116" stroke-width="2.25" stroke-linecap="round" stroke-linejoin="round"/>
<path d="M29.25 6.75L18 18M29.25 6.75V3M29.25 6.75H33" stroke="#665116" stroke-width="2.25" stroke-linecap="round"/>
</svg>
