<?xml version="1.0" standalone="no"?>
<!DOCTYPE svg PUBLIC "-//W3C//DTD SVG 20010904//EN"
 "http://www.w3.org/TR/2001/REC-SVG-20010904/DTD/svg10.dtd">
<svg version="1.0" xmlns="http://www.w3.org/2000/svg"
 width="595.000000pt" height="478.000000pt" viewBox="0 0 595.000000 478.000000"
 preserveAspectRatio="xMidYMid meet">

<g transform="translate(0.000000,478.000000) scale(0.100000,-0.100000)"
fill="#000000" stroke="none">
<path d="M2783 4764 c-7 -3 -13 -10 -13 -16 0 -6 65 -108 144 -227 206 -309
279 -445 354 -655 35 -98 37 -105 36 -241 0 -132 -2 -145 -32 -235 -54 -155
-108 -249 -344 -595 -297 -436 -408 -663 -454 -925 -31 -177 -1 -375 81 -548
54 -115 180 -298 224 -328 54 -35 133 -45 269 -34 63 5 115 10 117 12 1 2 7
64 14 139 21 250 64 368 221 599 226 335 284 426 339 537 62 125 102 238 122
340 11 61 8 243 -6 293 -14 52 46 -32 95 -135 145 -297 143 -541 -6 -830 -80
-156 -175 -281 -389 -515 -77 -83 -172 -190 -211 -236 -71 -84 -124 -168 -112
-179 3 -3 40 -2 83 4 48 6 87 6 102 0 13 -5 212 -9 442 -9 385 0 424 2 497 20
247 63 431 239 518 495 19 57 20 89 24 615 2 346 0 591 -7 650 -5 52 -15 160
-21 240 -12 175 -38 305 -91 465 -198 594 -651 1038 -1255 1228 -167 53 -283
69 -514 73 -118 2 -221 1 -227 -2z m767 -1405 c68 -111 128 -367 117 -503 -17
-216 -115 -409 -436 -856 -221 -310 -298 -504 -261 -659 7 -29 10 -54 7 -57
-13 -14 -88 72 -120 139 -52 108 -70 196 -65 314 9 168 47 240 433 808 218
321 285 505 285 781 0 46 2 84 4 84 2 0 19 -23 36 -51z"/>
<path d="M2660 4753 c-150 -15 -357 -81 -529 -168 -323 -162 -573 -383 -763
-675 -671 -1027 -235 -2373 916 -2830 67 -26 221 -70 249 -70 19 0 -9 22 -120
95 -143 94 -155 104 -266 213 -93 91 -197 236 -240 333 -97 220 -94 455 8 719
73 191 155 335 455 800 112 173 230 360 263 415 96 160 211 393 243 490 26 81
29 103 29 220 0 154 -9 187 -99 353 -66 122 -56 114 -146 105z"/>
<path d="M168 561 c-99 -32 -149 -104 -156 -222 -3 -47 0 -97 8 -123 32 -116
149 -181 280 -155 55 11 60 10 102 -15 57 -33 64 -33 83 4 l15 29 -39 21 -40
20 27 47 c24 43 27 58 27 143 0 83 -3 102 -26 145 -36 71 -96 107 -186 111
-38 2 -80 0 -95 -5z m157 -103 c15 -12 34 -36 41 -54 18 -43 18 -135 0 -179
-14 -33 -38 -46 -50 -26 -3 5 -19 14 -36 19 -27 10 -31 9 -44 -17 -14 -26 -14
-28 17 -41 l32 -13 -33 -4 c-45 -6 -101 25 -124 67 -23 43 -25 158 -3 200 25
49 62 70 120 70 39 0 60 -6 80 -22z"/>
<path d="M850 551 c-25 -13 -39 -30 -49 -59 -14 -38 -13 -43 11 -90 l26 -50
-43 -36 c-90 -75 -81 -191 18 -243 48 -25 145 -22 191 5 46 27 51 27 83 2 35
-27 45 -25 72 11 22 30 22 31 4 44 -58 42 -55 35 -33 92 l20 52 -37 10 c-39
11 -53 7 -53 -14 0 -29 -20 -23 -50 16 l-33 40 40 39 c46 44 57 81 38 127 -28
67 -131 94 -205 54z m128 -87 c4 -39 -30 -74 -56 -58 -9 6 -24 22 -32 37 -20
36 0 59 49 55 32 -3 36 -6 39 -34z m-35 -234 c44 -53 45 -56 28 -73 -26 -26
-85 -33 -116 -13 -35 23 -35 87 0 122 14 14 29 24 34 22 5 -2 29 -28 54 -58z"/>
<path d="M2326 556 c-91 -34 -141 -121 -141 -246 0 -145 62 -227 188 -250 110
-21 208 23 252 114 68 139 26 310 -90 370 -50 26 -155 32 -209 12z m164 -91
c45 -23 64 -69 64 -150 0 -82 -19 -126 -67 -155 -104 -64 -217 31 -204 170 9
103 50 149 135 150 24 0 56 -7 72 -15z"/>
<path d="M4855 556 c-54 -20 -120 -92 -136 -147 -43 -158 31 -320 160 -346 86
-18 199 4 255 48 25 19 26 25 26 120 l0 99 -105 0 -105 0 0 -40 0 -40 61 0 60
0 -3 -32 c-6 -64 -115 -98 -187 -60 -55 30 -73 73 -69 170 3 82 4 84 40 118
34 30 44 34 94 34 52 0 59 -3 90 -36 32 -33 37 -35 74 -29 29 5 40 12 40 24 0
28 -42 83 -79 105 -44 25 -161 32 -216 12z"/>
<path d="M1440 310 l0 -250 45 0 45 0 1 193 c0 123 4 185 9 172 5 -11 23 -81
40 -155 53 -230 44 -210 95 -210 51 0 38 -29 102 235 l38 160 3 -197 2 -198
45 0 45 0 0 250 0 250 -72 0 -73 0 -34 -133 c-53 -205 -52 -203 -60 -186 -5 7
-25 83 -47 167 l-39 152 -72 0 -73 0 0 -250z"/>
<path d="M2740 520 l0 -40 45 0 45 0 0 40 0 40 -45 0 -45 0 0 -40z"/>
<path d="M2930 310 l0 -250 45 0 45 0 0 250 0 250 -45 0 -45 0 0 -250z"/>
<path d="M4340 475 l0 -85 -32 20 c-64 39 -150 17 -190 -49 -19 -30 -23 -50
-23 -116 0 -100 20 -140 87 -173 40 -20 52 -22 84 -13 20 6 47 20 60 32 l24
22 0 -27 c0 -26 2 -27 43 -24 l42 3 3 248 2 247 -50 0 -50 0 0 -85z m-21 -141
c17 -21 21 -41 21 -94 0 -57 -4 -71 -25 -94 -57 -61 -135 -5 -135 98 0 72 32
116 85 116 24 0 39 -7 54 -26z"/>
<path d="M3363 415 c-29 -12 -63 -58 -63 -85 0 -5 18 -10 40 -10 29 0 42 5 50
21 9 16 19 20 57 17 41 -3 48 -6 56 -32 12 -35 4 -40 -80 -56 -110 -21 -157
-73 -132 -147 18 -55 83 -82 150 -62 21 7 44 18 50 26 16 18 26 16 32 -7 4
-16 14 -20 45 -20 l40 0 -4 63 c-2 34 -5 101 -8 148 -4 100 -15 125 -61 145
-43 18 -130 17 -172 -1z m143 -227 c-11 -57 -68 -86 -110 -55 -31 23 -17 60
29 73 22 7 51 13 64 13 21 1 23 -2 17 -31z"/>
<path d="M3850 423 c-8 -3 -27 -15 -42 -25 -28 -19 -28 -19 -28 1 0 18 -6 21
-45 21 l-45 0 0 -180 0 -180 45 0 45 0 0 93 c1 161 19 207 81 207 53 0 59 -18
59 -166 l0 -134 45 0 45 0 0 145 c0 165 -9 196 -61 214 -34 12 -74 13 -99 4z"/>
<path d="M5310 412 c-20 -10 -43 -32 -53 -52 l-17 -35 41 -3 c33 -3 44 1 56
17 10 15 25 21 52 21 43 0 64 -18 59 -52 -3 -19 -14 -25 -83 -40 -88 -20 -121
-44 -131 -92 -18 -97 94 -155 190 -98 35 21 36 21 46 2 15 -28 96 -30 84 -2
-4 9 -10 80 -13 157 -3 77 -10 146 -15 154 -26 40 -154 54 -216 23z m140 -226
c0 -57 -69 -88 -112 -49 -33 30 -16 59 45 73 61 15 67 13 67 -24z"/>
<path d="M5684 416 c-42 -19 -64 -53 -64 -99 0 -51 32 -81 106 -102 103 -29
109 -31 113 -50 8 -43 -82 -62 -119 -25 -11 11 -20 25 -20 31 0 12 -75 7 -88
-6 -11 -11 22 -58 55 -81 59 -40 158 -39 219 1 39 25 58 78 44 121 -14 40 -39
55 -141 84 -84 23 -98 32 -79 55 19 23 97 20 112 -5 10 -15 24 -20 55 -20 54
0 56 16 10 66 -31 34 -38 37 -103 40 -46 3 -79 0 -100 -10z"/>
<path d="M2740 240 l0 -180 45 0 45 0 0 180 0 180 -45 0 -45 0 0 -180z"/>
</g>
</svg>
