<svg width="102" height="102" viewBox="0 0 102 102" fill="none" xmlns="http://www.w3.org/2000/svg">
<path d="M64.0594 10.5841C59.8893 9.21049 55.4331 8.46729 50.8033 8.46729C27.422 8.46729 8.46777 27.4215 8.46777 50.8028C8.46777 74.1839 27.422 93.1383 50.8033 93.1383C74.1844 93.1383 93.1388 74.1839 93.1388 50.8028C93.1388 46.3779 92.4598 42.1115 91.2007 38.1022" stroke="#141B34" stroke-width="10" stroke-linecap="round"/>
<path d="M71.9703 50.8025C71.9703 62.4931 62.4931 71.9703 50.8025 71.9703C39.1119 71.9703 29.6348 62.4931 29.6348 50.8025C29.6348 39.1119 39.1119 29.6348 50.8025 29.6348" stroke="#141B34" stroke-width="10" stroke-linecap="round" stroke-linejoin="round"/>
<path d="M82.5544 19.0512L50.8027 50.8028M82.5544 19.0512V8.46729M82.5544 19.0512H93.1383" stroke="#141B34" stroke-width="10" stroke-linecap="round"/>
</svg>
