<svg width="1367" height="401" viewBox="0 0 1367 401" fill="none" xmlns="http://www.w3.org/2000/svg">
<g clip-path="url(#clip0_275_24)">
<rect x="-33" width="1440" height="401" fill="#0E0E21"/>
<path d="M102.98 253.014H109.497L119.395 282.169H120.375L130.273 253.014H136.79L124.883 288H114.887L102.98 253.014ZM140.243 253.014H146.466V288H140.243V253.014ZM158.303 264.186C158.303 272.761 179.961 264.235 179.961 278.837C179.961 284.864 174.473 288.882 166.241 288.882C157.519 288.882 151.345 283.884 150.855 276.338H157.078C157.568 280.356 161.194 283.002 166.192 283.002C170.7 283.002 173.738 281.434 173.738 279.033C173.738 270.458 152.08 279.131 152.08 264.186C152.08 257.228 157.421 252.573 165.457 252.573C173.003 252.573 178.393 257.424 178.883 264.725H172.66C172.023 260.952 169.181 258.453 165.555 258.453C161.194 258.453 158.303 260.756 158.303 264.186ZM184.362 253.014H190.585V288H184.362V253.014ZM231.185 270.654C231.185 281.581 223.933 288.882 213.104 288.882C202.226 288.882 194.974 281.581 194.974 270.654C194.974 259.825 202.226 252.573 213.104 252.573C223.933 252.573 231.185 259.825 231.185 270.654ZM201.197 270.654C201.197 278.053 205.95 283.002 213.104 283.002C220.209 283.002 224.962 278.053 224.962 270.654C224.962 263.353 220.209 258.453 213.104 258.453C205.95 258.453 201.197 263.353 201.197 270.654ZM261.777 253.014H268V288H256.975L242.814 258.11H241.834V288H235.611V253.014H247.273L260.797 282.904H261.777V253.014Z" fill="#EAEAF1"/>
<g style="mix-blend-mode:multiply" clip-path="url(#clip1_275_24)">
<path d="M1328.58 1309.8C1324.24 1294.77 1314.88 1281.25 1304.29 1269.65C1280.92 1244.22 1250.9 1226.01 1226.71 1201.36C1202.52 1176.71 1183.95 1141.5 1192.64 1107.85C1197.4 1089.49 1209.98 1072.95 1209.88 1053.96C1209.78 1033.68 1194.84 1016.15 1177.66 1005.91C1160.42 995.609 1140.73 990.72 1122.27 983.022C1079 964.871 1052.97 933.873 1026.38 896.53C1001.83 861.995 970.99 834.118 927.417 829.749C917.495 828.761 907.164 828.917 898.111 824.756C872.949 813.106 871.415 776.543 852.083 756.519C839.144 743.101 819.402 738.42 806.105 725.313C780.943 700.504 787.233 655.204 763.452 628.991C748.825 612.868 726.271 607.771 706.888 598.201C687.504 588.631 668.735 568.607 674.514 547.491C677.583 536.309 686.788 528.196 695.38 520.55C718.446 500.058 742.227 472.805 737.062 442.119C733.022 418.091 712.36 400.928 701.415 379.239C678.247 333.263 697.068 265.182 655.438 235.536C636.873 222.326 609.869 220.921 597.135 201.886C591.151 192.992 589.668 181.862 586.548 171.564C583.786 162.41 579.541 153.829 574.12 146.027C563.38 130.476 540.059 145.715 549.469 162.202L570.642 199.233C576.831 209.999 583.121 221.025 592.378 229.243C610.381 245.262 637.742 249.215 652.267 268.562C672.161 295.035 657.432 334.095 667.814 365.717C679.066 399.939 719.469 425.684 712.258 460.999C704.535 498.758 646.999 510.668 643.317 549.104C641.066 572.716 661.421 592.064 681.725 603.766C702.029 615.468 725.401 624.986 737.471 645.27C755.371 675.384 742.943 720.788 769.18 743.777C782.272 755.271 800.837 756.779 817.152 762.656C850.037 774.515 874.688 807.021 877.603 842.387C878.984 859.239 875.864 876.714 881.03 892.837C887.985 914.733 908.238 928.88 927.263 941.362C988.635 981.774 1050.01 1022.24 1111.38 1062.65C1120.74 1068.84 1131.17 1075.29 1142.27 1073.88C1153.37 1072.48 1162.88 1058.54 1156.13 1049.54C1152.24 1044.34 1145.13 1043.2 1138.79 1042.11C1105.85 1036.54 1074.4 1022.19 1048.47 1000.86C1019.42 976.989 996.562 944.171 962.552 928.464C948.539 922.015 933.093 918.738 919.745 910.937C906.397 903.135 894.838 888.884 896.731 873.333C899.595 849.513 932.071 840.619 953.193 851.385C974.315 862.151 986.896 884.255 1000.7 903.759C1036.71 954.781 1088.26 994.36 1146.41 1015.58C1162.37 1021.41 1180.93 1027.85 1186.71 1044.08C1193.97 1064.57 1175.97 1084.39 1168.56 1104.78C1154.7 1143.21 1180.11 1185.03 1210.19 1212.28C1240.26 1239.53 1277.03 1261.07 1297.13 1296.59C1302.81 1306.68 1307.05 1318.23 1305.47 1329.72C1303.88 1341.21 1294.98 1352.24 1283.58 1352.92C1269.41 1353.8 1259.13 1340.02 1251.61 1327.8C1222.1 1279.89 1192.59 1231.99 1163.03 1184.09C1139.56 1145.97 1113.78 1105.77 1073.38 1087.41C1055.99 1079.5 1036.35 1075.96 1021.21 1064.16C1003.52 1050.32 991.908 1025.41 969.763 1022.6C949.919 1020.05 930.536 1037.37 911.306 1031.86C896.731 1027.65 888.701 1012.1 882.82 997.897C853.617 927.684 833.109 849.981 779.204 796.983C769.384 787.309 757.673 778.259 744.017 777.167C730.362 776.075 715.173 786.165 715.326 800.051C715.377 807.229 719.366 813.782 723.611 819.503C723.714 819.659 723.867 819.815 723.969 819.971C731.181 829.541 745.552 819.243 739.159 809.101C736.397 804.68 740.489 799.167 745.398 800.623C755.167 803.484 763.912 812.43 770.612 820.959C814.032 876.35 845.536 941.414 862.209 1010.17C867.323 1031.24 874.688 1056.72 895.452 1061.71C909.568 1065.15 924.092 1056.98 938.566 1057.86C958.511 1059.11 973.138 1076.43 989.606 1087.98C1021.57 1110.34 1064.84 1112.11 1095.01 1136.92C1116.19 1154.34 1127.95 1180.61 1141.14 1204.79C1165.69 1249.73 1197.5 1290.09 1229.16 1330.19C1248.44 1354.63 1276.98 1381.83 1305.52 1370.13C1323.57 1362.75 1332.98 1340.9 1330.94 1321.24C1330.42 1317.45 1329.66 1313.55 1328.58 1309.8Z" fill="#EAEAF1"/>
<path d="M1440.89 984.635C1438.28 968.096 1430.36 952.181 1420.13 938.866C1405.35 919.57 1386.12 904.384 1368.17 888.104C1314.62 839.423 1271.81 779.352 1217.14 731.919C1168.56 689.791 1110.87 657.857 1069.75 608.187C1049.24 583.379 1032.67 554.097 1006.02 536.31C964.853 508.9 910.693 515.922 862.925 527.988C846.406 532.149 829.068 536.778 812.703 532.097C796.337 527.364 782.426 509.212 788.665 493.141C794.803 477.33 815.413 473.378 831.881 476.394C832.035 476.446 832.188 476.446 832.393 476.498C845.281 478.943 853.515 462.924 844.053 453.666C822.829 432.914 804.264 409.406 789.023 383.817C785.034 377.159 781.147 370.19 777.107 363.221C768.975 349.23 748.007 359.632 753.837 374.715C765.088 404.101 770.458 434.578 762.582 464.744C757.315 484.82 746.626 507.184 757.417 524.815C763.196 534.229 773.783 539.326 784.011 543.227C825.233 559.038 870.239 564.603 913.966 559.298C941.327 555.969 970.479 548.74 995.335 560.858C1014.26 570.064 1026.63 588.788 1038.86 606.107C1059.11 634.712 1081.82 662.017 1108.97 684.122C1122.02 694.732 1136.49 705.498 1152.19 711.531C1167.33 717.304 1175.97 725.001 1187.99 736.548C1246.55 792.77 1303.11 851.125 1357.63 911.457C1375.63 931.377 1393.38 951.453 1410.87 971.788C1416.45 978.238 1421.97 984.687 1427.44 991.136C1432.51 997.065 1442.12 992.592 1440.89 984.843C1440.89 984.791 1440.89 984.739 1440.89 984.635Z" fill="#EAEAF1"/>
<path d="M1258.36 315.685C1260.56 290.98 1239.34 269.656 1216.89 259.462C1194.03 249.112 1168.35 245.731 1146.46 233.353C1116.24 216.294 1096.65 184.099 1066.83 166.312C1049.91 156.222 1030.16 151.125 1014.36 139.267C983.828 116.383 973.804 73.1623 944.141 49.0818C925.73 34.1549 899.545 26.0413 890.799 3.78111C888.805 -1.26385 888.191 -7.71303 892.027 -11.5098C894.533 -14.0062 898.266 -14.6304 901.744 -14.9425C938.822 -18.4271 975.288 -0.171646 1002.8 25.3652C1030.32 50.9021 1050.57 83.3043 1071.39 114.77C1089.69 142.388 1109.13 169.953 1134.09 191.225C1139.51 195.854 1147.28 189.457 1143.96 183.059C1143.91 183.007 1143.91 182.955 1143.86 182.903C1118.9 135.574 1085.04 93.8623 1051.39 52.5145C1033.28 30.2542 1014.72 7.57783 990.784 -7.92112C963.934 -25.2924 931.816 -32.5738 900.056 -35.1742C889.469 -36.0064 876.53 -35.1223 871.467 -25.6045C869.268 -21.3917 869.217 -16.3466 869.728 -11.6137C872.541 12.8309 889.316 33.1148 907.216 49.6539C925.116 66.1931 945.215 81.0158 958.41 101.612C968.588 117.527 974.367 136.406 986.948 150.449C1011.7 178.17 1054.71 179.783 1077.93 209.064C1105.91 244.327 1147.18 251.608 1187.07 267.159C1193.21 269.552 1199.24 272.152 1205.12 275.117C1216.43 280.838 1227.58 288.587 1232.74 300.342C1237.86 312.044 1234.43 328.375 1222.82 333.42C1215.2 336.748 1206.35 334.564 1198.83 331.079C1183.44 324.006 1170.86 311.992 1157.15 301.902C1129.33 281.41 1096.65 268.72 1068.06 249.32C1037.84 228.776 1012.72 201.107 982.038 181.239C961.223 167.768 937.902 157.835 919.695 140.931C868.04 92.8741 871.007 2.06486 815.823 -41.7795C796.491 -57.1224 772.352 -64.5598 748.673 -71.1651C740.387 -73.5055 728.062 -73.1935 727.141 -64.4558C726.886 -61.8033 727.755 -59.1508 729.392 -57.0704C744.274 -37.9828 769.334 -32.4177 789.382 -19.6753C849.066 18.1879 853.567 109.413 908.137 154.506C922.15 166.104 938.72 173.906 954.37 183.059C986.539 201.835 1015.13 226.228 1044.64 249.112C1089.64 283.958 1137.16 315.32 1184.67 346.63C1201.8 357.969 1219.8 370.191 1228.6 388.966C1235.04 402.749 1235.81 418.56 1234.89 433.747C1233.56 455.903 1228.91 477.851 1221.18 498.603C1219.34 503.544 1217.45 509.473 1220.52 513.738C1223.48 517.899 1229.93 517.899 1234.17 515.09C1238.37 512.282 1240.82 507.445 1242.87 502.764C1256.73 471.09 1260.26 434.891 1252.79 401.085C1249.36 385.638 1243.69 369.983 1246.4 354.432C1248.65 341.429 1256.57 329.935 1258.16 316.829C1258.26 316.517 1258.31 316.101 1258.36 315.685Z" fill="#EAEAF1"/>
<path d="M1328.58 685.682C1324.24 670.652 1314.88 657.129 1304.29 645.531C1280.92 620.098 1250.9 601.894 1226.71 577.242C1202.52 552.589 1183.95 517.378 1192.64 483.728C1197.4 465.369 1209.98 448.829 1209.88 429.846C1209.78 409.562 1194.84 392.035 1177.66 381.789C1160.42 371.491 1140.73 366.602 1122.27 358.904C1079 340.753 1052.97 309.755 1026.38 272.412C1001.83 237.877 970.99 210 927.417 205.631C917.495 204.643 907.164 204.799 898.111 200.638C872.949 188.988 871.415 152.425 852.083 132.401C839.144 118.983 819.402 114.302 806.105 101.195C780.943 76.3866 787.233 31.0859 763.452 4.87296C748.825 -11.2501 726.271 -16.347 706.888 -25.9169C687.504 -35.4867 668.735 -55.5105 674.514 -76.6265C677.583 -87.8086 686.788 -95.9222 695.38 -103.568C718.446 -124.06 742.227 -151.313 737.062 -181.999C733.022 -206.027 712.36 -223.19 701.415 -244.878C678.247 -290.855 697.068 -358.936 655.438 -388.582C636.873 -401.792 609.869 -403.197 597.135 -422.232C591.151 -431.126 589.668 -442.256 586.548 -452.554C583.786 -461.708 579.541 -470.289 574.12 -478.091C563.38 -493.642 540.059 -478.403 549.469 -461.916L570.642 -424.885C576.831 -414.119 583.121 -403.093 592.378 -394.875C610.381 -378.856 637.742 -374.903 652.267 -355.556C672.161 -329.083 657.432 -290.023 667.814 -258.401C679.066 -224.179 719.469 -198.434 712.258 -163.119C704.535 -125.36 646.999 -113.45 643.317 -75.0142C641.066 -51.4017 661.421 -32.054 681.725 -20.3518C702.029 -8.6496 725.401 0.868225 737.471 21.1521C755.371 51.2658 742.943 96.6704 769.18 119.659C782.272 131.153 800.837 132.661 817.152 138.538C850.037 150.397 874.688 182.903 877.603 218.27C878.984 235.121 875.864 252.596 881.03 268.719C887.985 290.615 908.238 304.762 927.263 317.244C988.635 357.656 1050.01 398.12 1111.38 438.531C1120.74 444.721 1131.17 451.17 1142.27 449.766C1153.37 448.361 1162.88 434.423 1156.13 425.425C1152.24 420.224 1145.13 419.08 1138.79 417.988C1105.85 412.422 1074.4 398.068 1048.47 376.744C1019.42 352.871 996.562 320.053 962.552 304.346C948.539 297.897 933.093 294.62 919.745 286.819C906.397 279.017 894.838 264.766 896.731 249.215C899.595 225.395 932.071 216.501 953.193 227.267C974.315 238.033 986.896 260.138 1000.7 279.641C1036.71 330.663 1088.26 370.242 1146.41 391.463C1162.37 397.288 1180.93 403.737 1186.71 419.964C1193.97 440.456 1175.97 460.272 1168.56 480.659C1154.7 519.095 1180.11 560.911 1210.19 588.164C1240.26 615.417 1277.03 636.949 1297.13 672.472C1302.81 682.562 1307.05 694.108 1305.47 705.602C1303.88 717.096 1294.98 728.122 1283.58 728.851C1269.41 729.735 1259.13 715.952 1251.61 703.73C1222.1 655.829 1192.59 607.928 1163.03 560.026C1139.56 521.903 1113.78 481.7 1073.38 463.34C1055.99 455.435 1036.35 451.898 1021.21 440.092C1003.52 426.257 991.908 401.344 969.763 398.536C949.919 395.987 930.536 413.307 911.306 407.794C896.731 403.581 888.701 388.03 882.82 373.831C853.617 303.618 833.109 225.915 779.204 172.917C769.384 163.243 757.673 154.193 744.017 153.101C730.362 152.009 715.173 162.099 715.326 175.986C715.377 183.163 719.366 189.716 723.611 195.437C723.714 195.593 723.867 195.749 723.969 195.905C731.181 205.475 745.552 195.177 739.159 185.035C736.397 180.614 740.489 175.101 745.398 176.558C755.167 179.418 763.912 188.364 770.612 196.893C814.032 252.284 845.536 317.348 862.209 386.105C867.323 407.169 874.688 432.654 895.452 437.647C909.568 441.08 924.092 432.914 938.566 433.799C958.511 435.047 973.138 452.366 989.606 463.912C1021.57 486.277 1064.84 488.045 1095.01 512.854C1116.19 530.277 1127.95 556.542 1141.14 580.726C1165.69 625.663 1197.5 666.023 1229.16 706.122C1248.44 730.567 1276.98 757.768 1305.52 746.066C1323.57 738.68 1332.98 716.836 1330.94 697.177C1330.42 693.328 1329.66 689.427 1328.58 685.682Z" fill="#EAEAF1"/>
<path d="M1440.89 360.517C1438.28 343.977 1430.36 328.062 1420.13 314.748C1405.35 295.452 1386.12 280.265 1368.17 263.986C1314.62 215.305 1271.81 155.234 1217.14 107.801C1168.56 65.6725 1110.87 33.7386 1069.75 -15.9309C1049.24 -40.7396 1032.67 -70.0211 1006.02 -87.8085C964.853 -115.218 910.693 -108.196 862.925 -96.1301C846.406 -91.9693 829.068 -87.3405 812.703 -92.0214C796.337 -96.7543 782.426 -114.906 788.665 -130.977C794.803 -146.788 815.413 -150.741 831.881 -147.724C832.035 -147.672 832.188 -147.672 832.393 -147.62C845.281 -145.175 853.515 -161.194 844.053 -170.452C822.829 -191.204 804.264 -214.713 789.023 -240.302C785.034 -246.959 781.147 -253.928 777.107 -260.897C768.975 -274.888 748.007 -264.486 753.837 -249.403C765.088 -220.018 770.458 -189.54 762.582 -159.374C757.315 -139.298 746.626 -116.934 757.417 -99.3027C763.196 -89.889 773.783 -84.792 784.011 -80.8913C825.233 -65.0802 870.239 -59.5152 913.966 -64.8202C941.327 -68.1488 970.479 -75.3782 995.335 -63.2599C1014.26 -54.0541 1026.63 -35.3306 1038.86 -18.0113C1059.11 10.5941 1081.82 37.8993 1108.97 60.0035C1122.02 70.6136 1136.49 81.3796 1152.19 87.4127C1167.33 93.1858 1175.97 100.883 1187.99 112.43C1246.55 168.652 1303.11 227.007 1357.63 287.339C1375.63 307.259 1393.38 327.334 1410.87 347.67C1416.45 354.119 1421.97 360.569 1427.44 367.018C1432.51 372.947 1442.12 368.474 1440.89 360.725C1440.89 360.673 1440.89 360.621 1440.89 360.517Z" fill="#EAEAF1"/>
<path d="M714.815 685.683C710.468 670.652 701.109 657.129 690.522 645.531C667.15 620.098 637.129 601.895 612.938 577.242C588.747 552.589 570.183 517.379 578.877 483.728C583.633 465.369 596.214 448.83 596.112 429.846C596.01 409.562 581.076 392.035 563.892 381.789C546.708 371.543 526.967 366.602 508.504 358.905C465.237 340.753 439.205 309.755 412.611 272.412C388.062 237.878 357.223 210 313.649 205.631C303.727 204.643 293.396 204.799 284.344 200.638C259.181 188.988 257.647 152.425 238.315 132.402C225.376 118.983 205.635 114.302 192.337 101.196C167.175 76.3869 173.466 31.0862 149.684 4.87326C135.057 -11.2498 112.503 -16.3467 93.1199 -25.9166C73.7367 -35.4864 54.9672 -55.5102 60.7463 -76.6262C63.8149 -87.8083 73.0207 -95.9219 81.6127 -103.567C104.678 -124.059 128.46 -151.312 123.294 -181.998C119.254 -206.027 98.5922 -223.19 87.6476 -244.878C64.4798 -290.855 83.3004 -358.936 41.67 -388.582C23.105 -401.792 -3.89853 -403.196 -16.6332 -422.232C-22.6169 -431.126 -24.1 -442.256 -27.2198 -452.554C-29.9815 -461.707 -34.2264 -470.289 -39.6475 -478.091C-50.3876 -493.641 -73.7088 -478.403 -64.2985 -461.915L-43.1253 -424.884C-36.937 -414.118 -30.6464 -403.092 -21.3895 -394.875C-3.3871 -378.856 23.9745 -374.903 38.4991 -355.555C58.3937 -329.082 43.6645 -290.023 54.0466 -258.401C65.2981 -224.178 105.701 -198.433 98.4899 -163.119C90.7673 -125.359 33.2314 -113.449 29.549 -75.0139C27.2988 -51.4014 47.6537 -32.0537 67.9575 -20.3515C88.2613 -8.64929 111.634 0.86853 123.703 21.1524C141.604 51.2661 129.176 96.6707 155.412 119.659C168.505 131.153 187.07 132.662 203.384 138.539C236.269 150.397 260.92 182.903 263.836 218.27C265.216 235.121 262.097 252.596 267.262 268.719C274.218 290.616 294.47 304.762 313.495 317.245C374.867 357.656 436.239 398.12 497.611 438.532C506.97 444.721 517.403 451.17 528.501 449.766C539.599 448.362 549.112 434.423 542.361 425.425C538.474 420.224 531.365 419.08 525.023 417.988C492.087 412.423 460.634 398.068 434.705 376.744C405.655 352.871 382.794 320.053 348.784 304.346C334.771 297.897 319.326 294.62 305.977 286.819C292.629 279.069 281.071 264.767 282.963 249.216C285.827 225.395 318.303 216.502 339.425 227.268C360.547 238.034 373.128 260.138 386.937 279.642C422.942 330.663 474.494 370.243 532.643 391.463C548.6 397.288 567.165 403.737 572.944 419.964C580.207 440.456 562.204 460.272 554.789 480.66C540.929 519.095 566.347 560.911 596.419 588.164C626.491 615.417 663.263 636.949 683.362 672.472C689.039 682.562 693.284 694.108 691.698 705.603C690.113 717.097 681.214 728.123 669.809 728.851C655.643 729.735 645.363 715.952 637.845 703.73C608.335 655.829 578.826 607.928 549.265 560.027C525.79 521.904 500.014 481.7 459.611 463.34C442.223 455.435 422.584 451.898 407.445 440.092C389.75 426.257 378.14 401.345 355.995 398.536C336.152 395.988 316.769 413.307 297.539 407.794C282.963 403.581 274.934 388.03 269.052 373.831C239.849 303.618 219.341 225.915 165.436 172.917C155.617 163.243 143.905 154.194 130.25 153.102C116.595 152.009 101.405 162.099 101.559 175.986C101.61 183.163 105.599 189.716 109.844 195.438C109.946 195.594 110.099 195.75 110.202 195.906C117.413 205.475 131.784 195.177 125.391 185.036C122.629 180.615 126.721 175.102 131.631 176.558C141.399 179.419 150.144 188.364 156.844 196.894C200.265 252.284 231.769 317.349 248.441 386.106C253.556 407.17 260.92 432.655 281.684 437.648C295.8 441.08 310.325 432.915 324.798 433.799C344.744 435.047 359.371 452.366 375.839 463.913C407.803 486.277 451.07 488.045 481.245 512.854C502.418 530.277 514.181 556.542 527.376 580.727C551.924 625.663 583.735 666.023 615.393 706.123C634.674 730.567 663.212 757.768 691.75 746.066C709.803 738.681 719.214 716.837 717.168 697.177C716.708 693.328 715.94 689.427 714.815 685.683Z" fill="#EAEAF1"/>
<path d="M827.177 360.517C824.569 343.977 816.642 328.062 806.413 314.748C791.633 295.452 772.403 280.265 754.451 263.986C700.905 215.305 658.098 155.234 603.426 107.801C554.84 65.6725 497.151 33.7386 456.032 -15.9309C435.523 -40.7396 418.953 -70.0211 392.307 -87.8085C351.137 -115.218 296.977 -108.196 249.209 -96.1301C232.69 -91.9693 215.352 -87.3405 198.987 -92.0214C182.621 -96.7543 168.71 -114.906 174.949 -130.977C181.086 -146.788 201.697 -150.741 218.165 -147.724C218.319 -147.672 218.472 -147.672 218.677 -147.62C231.565 -145.175 239.799 -161.194 230.337 -170.452C209.113 -191.204 190.548 -214.713 175.307 -240.302C171.318 -246.959 167.431 -253.928 163.391 -260.897C155.259 -274.888 134.291 -264.486 140.121 -249.403C151.372 -220.018 156.742 -189.54 148.866 -159.374C143.599 -139.298 132.91 -116.934 143.701 -99.3027C149.48 -89.889 160.067 -84.792 170.295 -80.8913C211.517 -65.0802 256.522 -59.5152 300.25 -64.8202C327.611 -68.1488 356.763 -75.3782 381.618 -63.2599C400.541 -54.0541 412.918 -35.3306 425.141 -18.0113C445.394 10.5941 468.101 37.8993 495.258 60.0035C508.3 70.6136 522.773 81.3796 538.474 87.4127C553.613 93.1858 562.256 100.883 574.274 112.43C632.833 168.652 689.398 227.007 743.916 287.339C761.918 307.259 779.665 327.334 797.156 347.67C802.731 354.119 808.254 360.569 813.726 367.018C818.789 372.947 828.404 368.474 827.177 360.725C827.177 360.673 827.177 360.621 827.177 360.517Z" fill="#EAEAF1"/>
<path d="M714.815 61.5638C710.468 46.5331 701.109 33.0105 690.522 21.4122C667.15 -4.02051 637.129 -22.224 612.938 -46.8767C588.747 -71.5293 570.183 -106.74 578.877 -140.39C583.633 -158.75 596.214 -175.289 596.112 -194.273C596.01 -214.557 581.076 -232.084 563.892 -242.33C546.657 -252.576 526.967 -257.517 508.504 -265.214C465.237 -283.366 439.205 -314.363 412.611 -351.707C388.062 -386.241 357.223 -414.118 313.649 -418.487C303.727 -419.475 293.396 -419.319 284.344 -423.48C259.181 -435.13 257.647 -471.693 238.315 -491.717C225.376 -505.136 205.635 -509.817 192.337 -522.923C167.175 -547.732 173.466 -593.033 149.684 -619.245C135.057 -635.369 112.503 -640.466 93.1199 -650.035C73.7367 -659.605 54.9672 -679.629 60.7463 -700.745C63.8149 -711.927 73.0207 -720.041 81.6127 -727.686C104.678 -748.178 128.46 -775.431 123.294 -806.117C119.254 -830.146 98.5922 -847.309 87.6476 -868.997C64.4798 -914.974 83.3004 -983.055 41.67 -1012.7C23.105 -1025.91 -3.89853 -1027.32 -16.6332 -1046.35C-22.6169 -1055.24 -24.1 -1066.37 -27.2198 -1076.67C-30.0326 -1085.77 -34.2264 -1094.36 -39.6475 -1102.16C-50.3876 -1117.71 -73.7088 -1102.47 -64.2985 -1085.98L-43.1253 -1048.95C-36.937 -1038.19 -30.6464 -1027.16 -21.3895 -1018.94C-3.3871 -1002.92 23.9745 -998.97 38.4991 -979.622C58.3937 -953.149 43.6645 -914.09 54.0466 -882.468C65.2981 -848.245 105.701 -822.5 98.4899 -787.185C90.7673 -749.426 33.2314 -737.516 29.549 -699.081C27.2988 -675.468 47.6537 -656.121 67.9575 -644.418C88.2613 -632.716 111.634 -623.198 123.703 -602.914C141.604 -572.801 129.176 -527.396 155.412 -504.408C168.505 -492.913 187.07 -491.405 203.384 -485.528C236.269 -473.67 260.92 -441.164 263.836 -405.797C265.216 -388.946 262.097 -371.47 267.262 -355.347C274.218 -333.451 294.47 -319.304 313.495 -306.822C374.867 -266.41 436.239 -225.947 497.611 -185.535C506.97 -179.346 517.403 -172.897 528.501 -174.301C539.599 -175.705 549.112 -189.644 542.361 -198.642C538.474 -203.843 531.365 -204.987 525.023 -206.079C492.087 -211.644 460.634 -225.999 434.705 -247.323C405.655 -271.195 382.794 -304.014 348.784 -319.721C334.771 -326.17 319.326 -329.446 305.977 -337.248C292.629 -344.997 281.071 -359.3 282.963 -374.851C285.827 -398.672 318.303 -407.565 339.425 -396.799C360.547 -386.033 373.128 -363.929 386.937 -344.425C422.942 -293.404 474.494 -253.824 532.643 -232.604C548.6 -226.779 567.165 -220.33 572.944 -204.103C580.207 -183.611 562.204 -163.795 554.789 -143.407C540.929 -104.972 566.347 -63.1558 596.419 -35.9026C626.491 -8.64941 663.263 12.8826 683.362 48.4054C689.039 58.4952 693.284 70.0415 691.698 81.5356C690.113 93.0298 681.214 104.056 669.809 104.784C655.643 105.668 645.363 91.8856 637.845 79.6633C608.335 31.7622 578.826 -16.1388 549.265 -64.0399C525.79 -102.163 500.014 -142.367 459.611 -160.726C442.223 -168.632 422.584 -172.168 407.445 -183.975C389.75 -197.809 378.14 -222.722 355.995 -225.531C336.152 -228.079 316.769 -210.76 297.539 -216.273C282.963 -220.486 274.934 -236.037 269.052 -250.235C239.849 -320.449 219.341 -398.151 165.436 -451.15C155.617 -460.823 143.905 -469.873 130.25 -470.965C116.595 -472.057 101.405 -461.968 101.559 -448.081C101.61 -440.904 105.599 -434.35 109.844 -428.629C109.946 -428.473 110.099 -428.317 110.202 -428.161C117.413 -418.591 131.784 -428.889 125.391 -439.031C122.629 -443.452 126.721 -448.965 131.631 -447.509C141.399 -444.648 150.144 -435.703 156.844 -427.173C200.265 -371.782 231.769 -306.718 248.441 -237.961C253.556 -216.897 260.92 -191.412 281.684 -186.419C295.8 -182.987 310.325 -191.152 324.798 -190.268C344.744 -189.02 359.371 -171.7 375.839 -160.154C407.803 -137.79 451.07 -136.022 481.245 -111.213C502.418 -93.7896 514.181 -67.5247 527.376 -43.3401C551.924 1.59656 583.735 41.9561 615.393 82.0558C634.674 106.5 663.212 133.702 691.75 121.999C709.803 114.614 719.214 92.7698 717.168 73.1101C716.708 69.2094 715.94 65.3086 714.815 61.5638Z" fill="#EAEAF1"/>
<path d="M644.647 315.685C646.846 290.98 625.622 269.656 603.17 259.462C580.309 249.112 554.635 245.731 532.746 233.353C502.521 216.294 482.933 184.099 453.116 166.312C436.188 156.222 416.447 151.125 400.644 139.267C370.111 116.383 360.087 73.1623 330.424 49.0818C312.013 34.1549 285.827 26.0413 277.082 3.78111C275.087 -1.26385 274.474 -7.71303 278.309 -11.5098C280.815 -14.0062 284.549 -14.6304 288.027 -14.9425C325.105 -18.4271 361.57 -0.171646 389.085 25.3652C416.6 50.9021 436.853 83.3043 457.668 114.77C475.977 142.388 495.412 169.953 520.37 191.225C525.791 195.854 533.565 189.457 530.24 183.059C530.189 183.007 530.189 182.955 530.138 182.903C505.18 135.574 471.323 93.8623 437.671 52.5145C419.567 30.2542 401.002 7.57783 377.067 -7.92112C350.217 -25.2924 318.099 -32.5738 286.339 -35.1742C275.752 -36.0064 262.813 -35.1223 257.75 -25.6045C255.551 -21.3917 255.5 -16.3466 256.011 -11.6137C258.824 12.8309 275.599 33.1148 293.499 49.6539C311.399 66.1931 331.498 81.0158 344.693 101.612C354.871 117.527 360.65 136.406 373.231 150.449C397.984 178.17 440.996 179.783 464.214 209.064C492.19 244.327 533.462 251.608 573.354 267.159C579.491 269.552 585.526 272.152 591.407 275.117C602.71 280.838 613.859 288.587 619.025 300.342C624.139 312.044 620.712 328.375 609.103 333.42C601.483 336.748 592.635 334.564 585.117 331.079C569.723 324.006 557.141 311.992 543.435 301.902C515.613 281.41 482.933 268.72 454.344 249.32C424.118 228.776 399.007 201.107 368.321 181.239C347.506 167.768 324.185 157.835 305.978 140.931C254.323 92.8741 257.29 2.06486 202.106 -41.7795C182.774 -57.1224 158.635 -64.5598 134.955 -71.1651C126.67 -73.5055 114.345 -73.1935 113.424 -64.4558C113.168 -61.8033 114.038 -59.1508 115.674 -57.0704C130.557 -37.9828 155.617 -32.4177 175.665 -19.6753C235.349 18.1879 239.85 109.413 294.419 154.506C308.433 166.104 325.003 173.906 340.653 183.059C372.822 201.835 401.411 226.228 430.92 249.112C475.926 283.958 523.438 315.32 570.95 346.63C588.083 357.969 606.085 370.191 614.882 388.966C621.326 402.749 622.093 418.56 621.173 433.747C619.843 455.903 615.189 477.851 607.466 498.603C605.625 503.544 603.733 509.473 606.801 513.738C609.768 517.899 616.212 517.899 620.457 515.09C624.65 512.282 627.105 507.445 629.151 502.764C643.011 471.09 646.539 434.891 639.073 401.085C635.646 385.638 629.969 369.983 632.68 354.432C634.93 341.429 642.857 329.935 644.443 316.829C644.545 316.517 644.596 316.101 644.647 315.685Z" fill="#EAEAF1"/>
<path d="M827.177 360.517C824.569 343.977 816.642 328.062 806.413 314.748C791.633 295.452 772.403 280.265 754.451 263.986C700.905 215.305 658.098 155.234 603.426 107.801C554.84 65.6725 497.151 33.7386 456.032 -15.9309C435.523 -40.7396 418.953 -70.0211 392.307 -87.8085C351.137 -115.218 296.977 -108.196 249.209 -96.1301C232.69 -91.9693 215.352 -87.3405 198.987 -92.0214C182.621 -96.7543 168.71 -114.906 174.949 -130.977C181.086 -146.788 201.697 -150.741 218.165 -147.724C218.319 -147.672 218.472 -147.672 218.677 -147.62C231.565 -145.175 239.799 -161.194 230.337 -170.452C209.113 -191.204 190.548 -214.713 175.307 -240.302C171.318 -246.959 167.431 -253.928 163.391 -260.897C155.259 -274.888 134.291 -264.486 140.121 -249.403C151.372 -220.018 156.742 -189.54 148.866 -159.374C143.599 -139.298 132.91 -116.934 143.701 -99.3027C149.48 -89.889 160.067 -84.792 170.295 -80.8913C211.517 -65.0802 256.522 -59.5152 300.25 -64.8202C327.611 -68.1488 356.763 -75.3782 381.618 -63.2599C400.541 -54.0541 412.918 -35.3306 425.141 -18.0113C445.394 10.5941 468.101 37.8993 495.258 60.0035C508.3 70.6136 522.773 81.3796 538.474 87.4127C553.613 93.1858 562.256 100.883 574.274 112.43C632.833 168.652 689.398 227.007 743.916 287.339C761.918 307.259 779.665 327.334 797.156 347.67C802.731 354.119 808.254 360.569 813.726 367.018C818.789 372.947 828.404 368.474 827.177 360.725C827.177 360.673 827.177 360.621 827.177 360.517Z" fill="#EAEAF1"/>
</g>
<path d="M604.28 242.72V245.12H599.8V257H597.26V245.12H592.8V242.72H604.28ZM603.494 251.9C603.494 248.64 605.614 246.46 608.814 246.46C612.014 246.46 614.134 248.64 614.134 251.9C614.134 255.18 612.014 257.36 608.814 257.36C605.614 257.36 603.494 255.18 603.494 251.9ZM605.934 251.9C605.934 253.8 607.094 255.06 608.814 255.06C610.534 255.06 611.694 253.8 611.694 251.9C611.694 250.02 610.534 248.76 608.814 248.76C607.094 248.76 605.934 250.02 605.934 251.9ZM621.335 242.72H623.695V248.1H624.095C624.635 247.12 625.875 246.46 627.175 246.46C629.955 246.46 631.795 248.64 631.795 251.9C631.795 255.18 629.895 257.36 627.055 257.36C625.795 257.36 624.615 256.64 624.095 255.56H623.695V257H621.335V242.72ZM623.695 251.9C623.695 253.8 624.835 255.08 626.535 255.08C628.235 255.08 629.355 253.8 629.355 251.9C629.355 250 628.235 248.72 626.535 248.72C624.835 248.72 623.695 250 623.695 251.9ZM637.755 246.46C640.835 246.46 642.875 248.7 642.875 252.06V252.76H635.135C635.135 254.14 636.175 255.06 637.755 255.06C638.815 255.06 639.795 254.58 640.195 253.86L642.455 254.54C641.695 256.24 639.815 257.36 637.755 257.36C634.655 257.36 632.595 255.12 632.595 251.76C632.595 248.58 634.655 246.46 637.755 246.46ZM635.115 250.86H640.355C640.355 249.6 639.315 248.76 637.735 248.76C636.155 248.76 635.115 249.6 635.115 250.86ZM654.826 254.64H656.826V257H655.026C652.286 257 651.986 255.86 651.986 254.06V249.1H650.066V247H651.966V244.52H654.326V247H656.566V249.1H654.346V253.98C654.346 254.54 654.406 254.64 654.826 254.64ZM658.425 242.72H660.785V248.1H661.185C661.645 247.12 662.745 246.46 663.925 246.46C666.425 246.46 668.105 248.24 668.105 250.92L668.125 257H665.765L665.745 250.9C665.745 249.62 664.865 248.76 663.545 248.76C661.885 248.76 660.785 250 660.785 251.86V257H658.425V242.72ZM674.494 246.46C677.574 246.46 679.614 248.7 679.614 252.06V252.76H671.874C671.874 254.14 672.914 255.06 674.494 255.06C675.554 255.06 676.534 254.58 676.934 253.86L679.194 254.54C678.434 256.24 676.554 257.36 674.494 257.36C671.394 257.36 669.334 255.12 669.334 251.76C669.334 248.58 671.394 246.46 674.494 246.46ZM671.854 250.86H677.094C677.094 249.6 676.054 248.76 674.474 248.76C672.894 248.76 671.854 249.6 671.854 250.86ZM691.224 246.46C692.384 246.46 693.464 247.12 693.924 248.1H694.324V246.5H696.684V256.48C696.684 260.04 694.644 262.42 691.564 262.42C688.804 262.42 686.964 260.96 686.964 258.78L689.264 258.8C689.264 259.6 690.184 260.12 691.584 260.12C693.224 260.12 694.324 258.88 694.324 257V255.56H693.924C693.444 256.64 692.324 257.36 691.124 257.36C688.284 257.36 686.404 255.16 686.404 251.84C686.404 248.62 688.324 246.46 691.224 246.46ZM688.844 251.9C688.844 253.8 689.944 255.06 691.604 255.06C693.244 255.06 694.324 253.8 694.324 251.9C694.324 250 693.244 248.74 691.604 248.74C689.944 248.74 688.844 250 688.844 251.9ZM697.888 251.9C697.888 248.64 700.008 246.46 703.208 246.46C706.408 246.46 708.528 248.64 708.528 251.9C708.528 255.18 706.408 257.36 703.208 257.36C700.008 257.36 697.888 255.18 697.888 251.9ZM700.328 251.9C700.328 253.8 701.488 255.06 703.208 255.06C704.928 255.06 706.088 253.8 706.088 251.9C706.088 250.02 704.928 248.76 703.208 248.76C701.488 248.76 700.328 250.02 700.328 251.9ZM709.734 250.72H718.394V252.42H709.734V250.72ZM724.748 254.64H726.748V257H724.948C722.208 257 721.908 255.86 721.908 254.06V249.1H719.988V247H721.888V244.52H724.248V247H726.488V249.1H724.268V253.98C724.268 254.54 724.327 254.64 724.748 254.64ZM727.947 251.9C727.947 248.64 730.067 246.46 733.267 246.46C736.467 246.46 738.587 248.64 738.587 251.9C738.587 255.18 736.467 257.36 733.267 257.36C730.067 257.36 727.947 255.18 727.947 251.9ZM730.387 251.9C730.387 253.8 731.547 255.06 733.267 255.06C734.987 255.06 736.147 253.8 736.147 251.9C736.147 250.02 734.987 248.76 733.267 248.76C731.547 248.76 730.387 250.02 730.387 251.9ZM755.848 242.72V257H753.488V255.56H753.088C752.568 256.64 751.388 257.36 750.128 257.36C747.288 257.36 745.388 255.18 745.388 251.9C745.388 248.64 747.228 246.46 750.008 246.46C751.308 246.46 752.548 247.12 753.088 248.1H753.488V242.72H755.848ZM747.828 251.9C747.828 253.8 748.948 255.08 750.648 255.08C752.348 255.08 753.488 253.8 753.488 251.9C753.488 250 752.348 248.72 750.648 248.72C748.948 248.72 747.828 250 747.828 251.9ZM757.448 242.3H759.808V245.12H757.448V242.3ZM757.448 257V247H759.808V257H757.448ZM766.173 246.46C769.253 246.46 771.293 248.7 771.293 252.06V252.76H763.553C763.553 254.14 764.593 255.06 766.173 255.06C767.233 255.06 768.213 254.58 768.613 253.86L770.873 254.54C770.113 256.24 768.233 257.36 766.173 257.36C763.073 257.36 761.013 255.12 761.013 251.76C761.013 248.58 763.073 246.46 766.173 246.46ZM763.533 250.86H768.773C768.773 249.6 767.733 248.76 766.153 248.76C764.573 248.76 763.533 249.6 763.533 250.86ZM774.572 253.28C774.572 254.36 775.532 255.08 776.992 255.08C778.352 255.08 779.272 254.62 779.272 253.92C779.272 251.8 772.472 254.26 772.632 249.58C772.692 247.7 774.432 246.46 776.992 246.46C779.592 246.46 781.332 248.02 781.332 250.38H779.052C779.052 249.4 778.232 248.74 777.012 248.74C775.852 248.74 775.072 249.14 775.072 249.74C775.072 252.06 781.712 249.4 781.712 254.06C781.712 256.04 779.832 257.36 777.012 257.36C774.172 257.36 772.292 255.72 772.292 253.28H774.572ZM787.873 246.46C790.953 246.46 792.993 248.7 792.993 252.06V252.76H785.252C785.252 254.14 786.293 255.06 787.873 255.06C788.933 255.06 789.913 254.58 790.313 253.86L792.573 254.54C791.813 256.24 789.933 257.36 787.873 257.36C784.773 257.36 782.713 255.12 782.713 251.76C782.713 248.58 784.773 246.46 787.873 246.46ZM785.233 250.86H790.473C790.473 249.6 789.433 248.76 787.853 248.76C786.273 248.76 785.233 249.6 785.233 250.86ZM794.187 242.72H796.547V257H794.187V242.72ZM814.208 242.72V257H811.848V255.56H811.448C810.928 256.64 809.748 257.36 808.488 257.36C805.648 257.36 803.748 255.18 803.748 251.9C803.748 248.64 805.588 246.46 808.368 246.46C809.668 246.46 810.908 247.12 811.448 248.1H811.848V242.72H814.208ZM806.188 251.9C806.188 253.8 807.308 255.08 809.008 255.08C810.708 255.08 811.848 253.8 811.848 251.9C811.848 250 810.708 248.72 809.008 248.72C807.308 248.72 806.188 250 806.188 251.9ZM815.808 242.3H818.168V245.12H815.808V242.3ZM815.808 257V247H818.168V257H815.808ZM822.053 253.28C822.053 254.36 823.013 255.08 824.473 255.08C825.833 255.08 826.753 254.62 826.753 253.92C826.753 251.8 819.953 254.26 820.113 249.58C820.173 247.7 821.913 246.46 824.473 246.46C827.073 246.46 828.813 248.02 828.813 250.38H826.533C826.533 249.4 825.713 248.74 824.493 248.74C823.333 248.74 822.553 249.14 822.553 249.74C822.553 252.06 829.193 249.4 829.193 254.06C829.193 256.04 827.313 257.36 824.493 257.36C821.653 257.36 819.773 255.72 819.773 253.28H822.053ZM834.552 254.64H836.552V257H834.752C832.012 257 831.712 255.86 831.712 254.06V249.1H829.792V247H831.692V244.52H834.052V247H836.292V249.1H834.072V253.98C834.072 254.54 834.132 254.64 834.552 254.64ZM842.852 247H844.972V249.3H843.052C841.532 249.3 840.512 250.74 840.512 252.92V257H838.152V247H840.512V248.1H840.912C841.352 247.44 842.132 247 842.852 247ZM846.57 242.3H848.93V245.12H846.57V242.3ZM846.57 257V247H848.93V257H846.57ZM850.534 242.72H852.894V248.1H853.294C853.834 247.12 855.074 246.46 856.374 246.46C859.154 246.46 860.994 248.64 860.994 251.9C860.994 255.18 859.094 257.36 856.254 257.36C854.994 257.36 853.814 256.64 853.294 255.56H852.894V257H850.534V242.72ZM852.894 251.9C852.894 253.8 854.034 255.08 855.734 255.08C857.434 255.08 858.554 253.8 858.554 251.9C858.554 250 857.434 248.72 855.734 248.72C854.034 248.72 852.894 250 852.894 251.9ZM869.135 247H871.495V257H869.135V255.56H868.735C868.315 256.64 867.235 257.36 866.015 257.36C863.475 257.36 861.795 255.68 861.795 253.16V247H864.155V252.78C864.155 254.14 865.095 255.06 866.515 255.06C868.095 255.06 869.135 254 869.135 252.42V247ZM877.052 254.64H879.052V257H877.252C874.512 257 874.212 255.86 874.212 254.06V249.1H872.292V247H874.192V244.52H876.552V247H878.792V249.1H876.572V253.98C876.572 254.54 876.632 254.64 877.052 254.64ZM880.652 242.3H883.012V245.12H880.652V242.3ZM880.652 257V247H883.012V257H880.652ZM884.216 251.9C884.216 248.64 886.336 246.46 889.536 246.46C892.736 246.46 894.856 248.64 894.856 251.9C894.856 255.18 892.736 257.36 889.536 257.36C886.336 257.36 884.216 255.18 884.216 251.9ZM886.656 251.9C886.656 253.8 887.816 255.06 889.536 255.06C891.256 255.06 892.416 253.8 892.416 251.9C892.416 250.02 891.256 248.76 889.536 248.76C887.816 248.76 886.656 250.02 886.656 251.9ZM896.062 247H898.422V248.1H898.822C899.282 247.12 900.382 246.46 901.562 246.46C904.062 246.46 905.742 248.24 905.742 250.92L905.762 257H903.402L903.382 250.9C903.382 249.62 902.502 248.76 901.182 248.76C899.522 248.76 898.422 250 898.422 251.86V257H896.062V247ZM918.206 246.46C920.766 246.46 922.486 247.9 922.486 250.06V254.42C922.486 254.8 922.566 254.78 922.706 254.78H923.066V257C921.186 257 920.366 257 920.366 255.6V255.56H919.966C919.406 256.64 918.166 257.36 916.886 257.36C914.646 257.36 913.166 256.1 913.166 254.2C913.166 252.86 913.866 251.36 917.546 250.92L920.386 250.58V250.06C920.386 249.28 919.506 248.76 918.206 248.76C917.106 248.76 916.246 249.2 916.026 249.84H913.586C913.926 247.82 915.766 246.46 918.206 246.46ZM915.606 254.1C915.606 254.96 916.566 255.42 918.006 255.24C919.426 255.08 920.366 254.28 920.366 253.26V252.26L917.606 252.66C915.986 252.88 915.606 253.5 915.606 254.1ZM924.46 247H926.82V248.1H927.22C927.68 247.12 928.78 246.46 929.96 246.46C932.46 246.46 934.14 248.24 934.14 250.92L934.16 257H931.8L931.78 250.9C931.78 249.62 930.9 248.76 929.58 248.76C927.92 248.76 926.82 250 926.82 251.86V257H924.46V247ZM945.829 242.72V257H943.469V255.56H943.069C942.549 256.64 941.369 257.36 940.109 257.36C937.269 257.36 935.369 255.18 935.369 251.9C935.369 248.64 937.209 246.46 939.989 246.46C941.289 246.46 942.529 247.12 943.069 248.1H943.469V242.72H945.829ZM937.809 251.9C937.809 253.8 938.929 255.08 940.629 255.08C942.329 255.08 943.469 253.8 943.469 251.9C943.469 250 942.329 248.72 940.629 248.72C938.929 248.72 937.809 250 937.809 251.9ZM955.705 253.28C955.705 254.36 956.665 255.08 958.125 255.08C959.485 255.08 960.405 254.62 960.405 253.92C960.405 251.8 953.605 254.26 953.765 249.58C953.825 247.7 955.565 246.46 958.125 246.46C960.725 246.46 962.465 248.02 962.465 250.38H960.185C960.185 249.4 959.365 248.74 958.145 248.74C956.985 248.74 956.205 249.14 956.205 249.74C956.205 252.06 962.845 249.4 962.845 254.06C962.845 256.04 960.965 257.36 958.145 257.36C955.305 257.36 953.425 255.72 953.425 253.28H955.705ZM971.381 247H973.741V257H971.381V255.56H970.981C970.561 256.64 969.481 257.36 968.261 257.36C965.721 257.36 964.041 255.68 964.041 253.16V247H966.401V252.78C966.401 254.14 967.341 255.06 968.761 255.06C970.341 255.06 971.381 254 971.381 252.42V247ZM980.704 246.46C983.564 246.46 985.664 248.64 985.664 251.92C985.664 255.18 983.564 257.36 980.724 257.36C979.544 257.36 978.404 256.64 977.904 255.56H977.504V261.28H975.144V247H977.504V248.1H977.904C978.484 247.12 979.604 246.46 980.704 246.46ZM977.504 251.92C977.504 253.82 978.644 255.1 980.364 255.1C982.084 255.1 983.224 253.82 983.224 251.92C983.224 250.02 982.084 248.74 980.364 248.74C978.644 248.74 977.504 250.02 977.504 251.92ZM992.423 246.46C995.283 246.46 997.383 248.64 997.383 251.92C997.383 255.18 995.283 257.36 992.443 257.36C991.263 257.36 990.123 256.64 989.623 255.56H989.223V261.28H986.863V247H989.223V248.1H989.623C990.203 247.12 991.323 246.46 992.423 246.46ZM989.223 251.92C989.223 253.82 990.363 255.1 992.083 255.1C993.803 255.1 994.943 253.82 994.943 251.92C994.943 250.02 993.803 248.74 992.083 248.74C990.363 248.74 989.223 250.02 989.223 251.92ZM998.581 242.72H1000.94V257H998.581V242.72ZM1009.77 247H1012.27L1008.33 257.4C1006.89 261.18 1006.73 261.4 1004.51 261.4H1003.37V259.14H1004.57C1005.31 259.14 1005.43 259.02 1006.09 257.4L1002.35 247H1004.85L1007.01 253.6H1007.41L1009.77 247ZM1020.89 251.9C1020.89 253.8 1022.03 255.06 1023.73 255.06C1024.91 255.06 1025.91 254.3 1026.21 253.14H1028.65C1028.17 255.68 1026.19 257.36 1023.73 257.36C1020.57 257.36 1018.45 255.18 1018.45 251.9C1018.45 248.64 1020.57 246.46 1023.73 246.46C1026.19 246.46 1028.17 248.14 1028.65 250.68H1026.21C1025.91 249.52 1024.91 248.76 1023.73 248.76C1022.03 248.76 1020.89 250.02 1020.89 251.9ZM1029.45 251.9C1029.45 248.64 1031.57 246.46 1034.77 246.46C1037.97 246.46 1040.09 248.64 1040.09 251.9C1040.09 255.18 1037.97 257.36 1034.77 257.36C1031.57 257.36 1029.45 255.18 1029.45 251.9ZM1031.89 251.9C1031.89 253.8 1033.05 255.06 1034.77 255.06C1036.49 255.06 1037.65 253.8 1037.65 251.9C1037.65 250.02 1036.49 248.76 1034.77 248.76C1033.05 248.76 1031.89 250.02 1031.89 251.9ZM1041.3 247H1043.66V248.1H1044.06C1044.56 247.12 1045.66 246.46 1046.82 246.46C1048.16 246.46 1049.46 247.1 1050.08 248.08H1050.48C1051.18 247.1 1052.54 246.46 1053.88 246.46C1056.6 246.46 1058.4 248.16 1058.4 250.72L1058.42 257H1056.06L1056.04 251.1C1056.04 249.58 1055.1 248.56 1053.7 248.56C1052.22 248.56 1051.22 249.68 1051.22 251.38L1051.24 257H1048.88L1048.86 251.1C1048.86 249.58 1047.86 248.56 1046.34 248.56C1044.74 248.56 1043.66 249.96 1043.66 252.06V257H1041.3V247ZM1065.57 246.46C1068.43 246.46 1070.53 248.64 1070.53 251.92C1070.53 255.18 1068.43 257.36 1065.59 257.36C1064.41 257.36 1063.27 256.64 1062.77 255.56H1062.37V261.28H1060.01V247H1062.37V248.1H1062.77C1063.35 247.12 1064.47 246.46 1065.57 246.46ZM1062.37 251.92C1062.37 253.82 1063.51 255.1 1065.23 255.1C1066.95 255.1 1068.09 253.82 1068.09 251.92C1068.09 250.02 1066.95 248.74 1065.23 248.74C1063.51 248.74 1062.37 250.02 1062.37 251.92ZM1076.57 246.46C1079.13 246.46 1080.85 247.9 1080.85 250.06V254.42C1080.85 254.8 1080.93 254.78 1081.07 254.78H1081.43V257C1079.55 257 1078.73 257 1078.73 255.6V255.56H1078.33C1077.77 256.64 1076.53 257.36 1075.25 257.36C1073.01 257.36 1071.53 256.1 1071.53 254.2C1071.53 252.86 1072.23 251.36 1075.91 250.92L1078.75 250.58V250.06C1078.75 249.28 1077.87 248.76 1076.57 248.76C1075.47 248.76 1074.61 249.2 1074.39 249.84H1071.95C1072.29 247.82 1074.13 246.46 1076.57 246.46ZM1073.97 254.1C1073.97 254.96 1074.93 255.42 1076.37 255.24C1077.79 255.08 1078.73 254.28 1078.73 253.26V252.26L1075.97 252.66C1074.35 252.88 1073.97 253.5 1073.97 254.1ZM1082.82 247H1085.18V248.1H1085.58C1086.04 247.12 1087.14 246.46 1088.32 246.46C1090.82 246.46 1092.5 248.24 1092.5 250.92L1092.52 257H1090.16L1090.14 250.9C1090.14 249.62 1089.26 248.76 1087.94 248.76C1086.28 248.76 1085.18 250 1085.18 251.86V257H1082.82V247ZM1101.15 247H1103.65L1099.71 257.4C1098.27 261.18 1098.11 261.4 1095.89 261.4H1094.75V259.14H1095.95C1096.69 259.14 1096.81 259.02 1097.47 257.4L1093.73 247H1096.23L1098.39 253.6H1098.79L1101.15 247ZM1111.04 242.3H1113.4V245.12H1111.04V242.3ZM1111.04 257V247H1113.4V257H1111.04ZM1115.01 247H1117.37V248.1H1117.77C1118.23 247.12 1119.33 246.46 1120.51 246.46C1123.01 246.46 1124.69 248.24 1124.69 250.92L1124.71 257H1122.35L1122.33 250.9C1122.33 249.62 1121.45 248.76 1120.13 248.76C1118.47 248.76 1117.37 250 1117.37 251.86V257H1115.01V247ZM1135.05 254.76H1143.09V257H1132.51V242.72H1135.05V254.76ZM1149.53 246.46C1152.09 246.46 1153.81 247.9 1153.81 250.06V254.42C1153.81 254.8 1153.89 254.78 1154.03 254.78H1154.39V257C1152.51 257 1151.69 257 1151.69 255.6V255.56H1151.29C1150.73 256.64 1149.49 257.36 1148.21 257.36C1145.97 257.36 1144.49 256.1 1144.49 254.2C1144.49 252.86 1145.19 251.36 1148.87 250.92L1151.71 250.58V250.06C1151.71 249.28 1150.83 248.76 1149.53 248.76C1148.43 248.76 1147.57 249.2 1147.35 249.84H1144.91C1145.25 247.82 1147.09 246.46 1149.53 246.46ZM1146.93 254.1C1146.93 254.96 1147.89 255.42 1149.33 255.24C1150.75 255.08 1151.69 254.28 1151.69 253.26V252.26L1148.93 252.66C1147.31 252.88 1146.93 253.5 1146.93 254.1ZM1160.01 246.46C1161.17 246.46 1162.25 247.12 1162.71 248.1H1163.11V246.5H1165.47V256.48C1165.47 260.04 1163.43 262.42 1160.35 262.42C1157.59 262.42 1155.75 260.96 1155.75 258.78L1158.05 258.8C1158.05 259.6 1158.97 260.12 1160.37 260.12C1162.01 260.12 1163.11 258.88 1163.11 257V255.56H1162.71C1162.23 256.64 1161.11 257.36 1159.91 257.36C1157.07 257.36 1155.19 255.16 1155.19 251.84C1155.19 248.62 1157.11 246.46 1160.01 246.46ZM1157.63 251.9C1157.63 253.8 1158.73 255.06 1160.39 255.06C1162.03 255.06 1163.11 253.8 1163.11 251.9C1163.11 250 1162.03 248.74 1160.39 248.74C1158.73 248.74 1157.63 250 1157.63 251.9ZM1166.68 251.9C1166.68 248.64 1168.8 246.46 1172 246.46C1175.2 246.46 1177.32 248.64 1177.32 251.9C1177.32 255.18 1175.2 257.36 1172 257.36C1168.8 257.36 1166.68 255.18 1166.68 251.9ZM1169.12 251.9C1169.12 253.8 1170.28 255.06 1172 255.06C1173.72 255.06 1174.88 253.8 1174.88 251.9C1174.88 250.02 1173.72 248.76 1172 248.76C1170.28 248.76 1169.12 250.02 1169.12 251.9ZM1180.61 253.28C1180.61 254.36 1181.57 255.08 1183.03 255.08C1184.39 255.08 1185.31 254.62 1185.31 253.92C1185.31 251.8 1178.51 254.26 1178.67 249.58C1178.73 247.7 1180.47 246.46 1183.03 246.46C1185.63 246.46 1187.37 248.02 1187.37 250.38H1185.09C1185.09 249.4 1184.27 248.74 1183.05 248.74C1181.89 248.74 1181.11 249.14 1181.11 249.74C1181.11 252.06 1187.75 249.4 1187.75 254.06C1187.75 256.04 1185.87 257.36 1183.05 257.36C1180.21 257.36 1178.33 255.72 1178.33 253.28H1180.61ZM1189.54 254.38H1192.16V257C1192.16 258.64 1191.3 259.24 1189.9 259.24H1189.54V257.78H1189.9C1190.54 257.78 1190.7 257.62 1190.7 257H1189.54V254.38ZM1199.97 242.72H1202.33V250.08H1202.73L1205.89 247H1208.67L1205.23 250.52V250.92L1210.05 257H1207.31L1203.47 252.18L1202.33 253.24V257H1199.97V242.72ZM1211.16 247H1213.52V248.1H1213.92C1214.38 247.12 1215.48 246.46 1216.66 246.46C1219.16 246.46 1220.84 248.24 1220.84 250.92L1220.86 257H1218.5L1218.48 250.9C1218.48 249.62 1217.6 248.76 1216.28 248.76C1214.62 248.76 1213.52 250 1213.52 251.86V257H1211.16V247ZM1222.07 251.9C1222.07 248.64 1224.19 246.46 1227.39 246.46C1230.59 246.46 1232.71 248.64 1232.71 251.9C1232.71 255.18 1230.59 257.36 1227.39 257.36C1224.19 257.36 1222.07 255.18 1222.07 251.9ZM1224.51 251.9C1224.51 253.8 1225.67 255.06 1227.39 255.06C1229.11 255.06 1230.27 253.8 1230.27 251.9C1230.27 250.02 1229.11 248.76 1227.39 248.76C1225.67 248.76 1224.51 250.02 1224.51 251.9ZM1233.32 247H1235.76L1237.72 254.8H1238.12L1239 247H1243L1243.98 254.8H1244.38L1246.24 247H1248.68L1246.06 257H1242.18L1241.2 248.9H1240.8L1239.84 257H1236.02L1233.32 247ZM1249.69 247H1252.05V248.1H1252.45C1252.91 247.12 1254.01 246.46 1255.19 246.46C1257.69 246.46 1259.37 248.24 1259.37 250.92L1259.39 257H1257.03L1257.01 250.9C1257.01 249.62 1256.13 248.76 1254.81 248.76C1253.15 248.76 1252.05 250 1252.05 251.86V257H1249.69V247ZM1271.3 243.8C1271.04 243.8 1271 243.94 1271 244.24V247H1273.64V249.1H1271V257H1268.64V249.1H1267V247H1268.64V244.58C1268.64 242.38 1269.5 241.54 1271.74 241.54H1274.2V243.8H1271.3ZM1274.41 251.9C1274.41 248.64 1276.53 246.46 1279.73 246.46C1282.93 246.46 1285.05 248.64 1285.05 251.9C1285.05 255.18 1282.93 257.36 1279.73 257.36C1276.53 257.36 1274.41 255.18 1274.41 251.9ZM1276.85 251.9C1276.85 253.8 1278.01 255.06 1279.73 255.06C1281.45 255.06 1282.61 253.8 1282.61 251.9C1282.61 250.02 1281.45 248.76 1279.73 248.76C1278.01 248.76 1276.85 250.02 1276.85 251.9ZM1290.96 247H1293.08V249.3H1291.16C1289.64 249.3 1288.62 250.74 1288.62 252.92V257H1286.26V247H1288.62V248.1H1289.02C1289.46 247.44 1290.24 247 1290.96 247ZM595.08 281.28C595.08 282.36 596.04 283.08 597.5 283.08C598.86 283.08 599.78 282.62 599.78 281.92C599.78 279.8 592.98 282.26 593.14 277.58C593.2 275.7 594.94 274.46 597.5 274.46C600.1 274.46 601.84 276.02 601.84 278.38H599.56C599.56 277.4 598.74 276.74 597.52 276.74C596.36 276.74 595.58 277.14 595.58 277.74C595.58 280.06 602.22 277.4 602.22 282.06C602.22 284.04 600.34 285.36 597.52 285.36C594.68 285.36 592.8 283.72 592.8 281.28H595.08ZM610.756 275H613.116V285H610.756V283.56H610.356C609.936 284.64 608.856 285.36 607.636 285.36C605.096 285.36 603.416 283.68 603.416 281.16V275H605.776V280.78C605.776 282.14 606.716 283.06 608.136 283.06C609.716 283.06 610.756 282 610.756 280.42V275ZM620.079 274.46C622.939 274.46 625.039 276.64 625.039 279.92C625.039 283.18 622.939 285.36 620.099 285.36C618.919 285.36 617.779 284.64 617.279 283.56H616.879V289.28H614.519V275H616.879V276.1H617.279C617.859 275.12 618.979 274.46 620.079 274.46ZM616.879 279.92C616.879 281.82 618.019 283.1 619.739 283.1C621.459 283.1 622.599 281.82 622.599 279.92C622.599 278.02 621.459 276.74 619.739 276.74C618.019 276.74 616.879 278.02 616.879 279.92ZM630.998 274.46C634.078 274.46 636.118 276.7 636.118 280.06V280.76H628.377C628.377 282.14 629.418 283.06 630.998 283.06C632.058 283.06 633.038 282.58 633.438 281.86L635.698 282.54C634.938 284.24 633.058 285.36 630.998 285.36C627.898 285.36 625.838 283.12 625.838 279.76C625.838 276.58 627.898 274.46 630.998 274.46ZM628.358 278.86H633.598C633.598 277.6 632.558 276.76 630.978 276.76C629.398 276.76 628.358 277.6 628.358 278.86ZM642.012 275H644.132V277.3H642.212C640.692 277.3 639.672 278.74 639.672 280.92V285H637.312V275H639.672V276.1H640.072C640.512 275.44 641.292 275 642.012 275ZM645.73 270.3H648.09V273.12H645.73V270.3ZM645.73 285V275H648.09V285H645.73ZM649.295 279.9C649.295 276.64 651.415 274.46 654.615 274.46C657.815 274.46 659.935 276.64 659.935 279.9C659.935 283.18 657.815 285.36 654.615 285.36C651.415 285.36 649.295 283.18 649.295 279.9ZM651.735 279.9C651.735 281.8 652.895 283.06 654.615 283.06C656.335 283.06 657.495 281.8 657.495 279.9C657.495 278.02 656.335 276.76 654.615 276.76C652.895 276.76 651.735 278.02 651.735 279.9ZM665.84 275H667.96V277.3H666.04C664.52 277.3 663.5 278.74 663.5 280.92V285H661.14V275H663.5V276.1H663.9C664.34 275.44 665.12 275 665.84 275ZM678.029 281.28C678.029 282.36 678.989 283.08 680.449 283.08C681.809 283.08 682.729 282.62 682.729 281.92C682.729 279.8 675.929 282.26 676.089 277.58C676.149 275.7 677.889 274.46 680.449 274.46C683.049 274.46 684.789 276.02 684.789 278.38H682.509C682.509 277.4 681.689 276.74 680.469 276.74C679.309 276.74 678.529 277.14 678.529 277.74C678.529 280.06 685.169 277.4 685.169 282.06C685.169 284.04 683.289 285.36 680.469 285.36C677.629 285.36 675.749 283.72 675.749 281.28H678.029ZM691.33 274.46C694.41 274.46 696.45 276.7 696.45 280.06V280.76H688.71C688.71 282.14 689.75 283.06 691.33 283.06C692.39 283.06 693.37 282.58 693.77 281.86L696.03 282.54C695.27 284.24 693.39 285.36 691.33 285.36C688.23 285.36 686.17 283.12 686.17 279.76C686.17 276.58 688.23 274.46 691.33 274.46ZM688.69 278.86H693.93C693.93 277.6 692.89 276.76 691.31 276.76C689.73 276.76 688.69 277.6 688.69 278.86ZM702.344 275H704.464V277.3H702.544C701.024 277.3 700.004 278.74 700.004 280.92V285H697.644V275H700.004V276.1H700.404C700.844 275.44 701.624 275 702.344 275ZM705.466 275H707.926L710.226 282.4H710.626L712.926 275H715.386L712.146 285H708.706L705.466 275ZM716.198 270.3H718.558V273.12H716.198V270.3ZM716.198 285V275H718.558V285H716.198ZM722.203 279.9C722.203 281.8 723.343 283.06 725.043 283.06C726.223 283.06 727.223 282.3 727.523 281.14H729.963C729.483 283.68 727.503 285.36 725.043 285.36C721.883 285.36 719.763 283.18 719.763 279.9C719.763 276.64 721.883 274.46 725.043 274.46C727.503 274.46 729.483 276.14 729.963 278.68H727.523C727.223 277.52 726.223 276.76 725.043 276.76C723.343 276.76 722.203 278.02 722.203 279.9ZM735.919 274.46C738.999 274.46 741.039 276.7 741.039 280.06V280.76H733.299C733.299 282.14 734.339 283.06 735.919 283.06C736.979 283.06 737.959 282.58 738.359 281.86L740.619 282.54C739.859 284.24 737.979 285.36 735.919 285.36C732.819 285.36 730.759 283.12 730.759 279.76C730.759 276.58 732.819 274.46 735.919 274.46ZM733.279 278.86H738.519C738.519 277.6 737.479 276.76 735.899 276.76C734.319 276.76 733.279 277.6 733.279 278.86ZM742.434 282.38H745.054V285C745.054 286.64 744.194 287.24 742.794 287.24H742.434V285.78H742.794C743.434 285.78 743.594 285.62 743.594 285H742.434V282.38ZM754.098 279.9C754.098 281.8 755.238 283.06 756.938 283.06C758.118 283.06 759.118 282.3 759.418 281.14H761.858C761.378 283.68 759.398 285.36 756.938 285.36C753.778 285.36 751.658 283.18 751.658 279.9C751.658 276.64 753.778 274.46 756.938 274.46C759.398 274.46 761.378 276.14 761.858 278.68H759.418C759.118 277.52 758.118 276.76 756.938 276.76C755.238 276.76 754.098 278.02 754.098 279.9ZM762.654 279.9C762.654 276.64 764.774 274.46 767.974 274.46C771.174 274.46 773.294 276.64 773.294 279.9C773.294 283.18 771.174 285.36 767.974 285.36C764.774 285.36 762.654 283.18 762.654 279.9ZM765.094 279.9C765.094 281.8 766.254 283.06 767.974 283.06C769.694 283.06 770.854 281.8 770.854 279.9C770.854 278.02 769.694 276.76 767.974 276.76C766.254 276.76 765.094 278.02 765.094 279.9ZM774.499 275H776.859V276.1H777.259C777.759 275.12 778.859 274.46 780.019 274.46C781.359 274.46 782.659 275.1 783.279 276.08H783.679C784.379 275.1 785.739 274.46 787.079 274.46C789.799 274.46 791.599 276.16 791.599 278.72L791.619 285H789.259L789.239 279.1C789.239 277.58 788.299 276.56 786.899 276.56C785.419 276.56 784.419 277.68 784.419 279.38L784.439 285H782.079L782.059 279.1C782.059 277.58 781.059 276.56 779.539 276.56C777.939 276.56 776.859 277.96 776.859 280.06V285H774.499V275ZM798.77 274.46C801.63 274.46 803.73 276.64 803.73 279.92C803.73 283.18 801.63 285.36 798.79 285.36C797.61 285.36 796.47 284.64 795.97 283.56H795.57V289.28H793.21V275H795.57V276.1H795.97C796.55 275.12 797.67 274.46 798.77 274.46ZM795.57 279.92C795.57 281.82 796.71 283.1 798.43 283.1C800.15 283.1 801.29 281.82 801.29 279.92C801.29 278.02 800.15 276.74 798.43 276.74C796.71 276.74 795.57 278.02 795.57 279.92ZM809.689 274.46C812.769 274.46 814.809 276.7 814.809 280.06V280.76H807.069C807.069 282.14 808.109 283.06 809.689 283.06C810.749 283.06 811.729 282.58 812.129 281.86L814.389 282.54C813.629 284.24 811.749 285.36 809.689 285.36C806.589 285.36 804.529 283.12 804.529 279.76C804.529 276.58 806.589 274.46 809.689 274.46ZM807.049 278.86H812.289C812.289 277.6 811.249 276.76 809.669 276.76C808.089 276.76 807.049 277.6 807.049 278.86ZM820.373 282.64H822.373V285H820.573C817.833 285 817.533 283.86 817.533 282.06V277.1H815.613V275H817.513V272.52H819.873V275H822.113V277.1H819.893V281.98C819.893 282.54 819.952 282.64 820.373 282.64ZM823.972 270.3H826.332V273.12H823.972V270.3ZM823.972 285V275H826.332V285H823.972ZM832.306 282.64H834.306V285H832.506C829.766 285 829.466 283.86 829.466 282.06V277.1H827.546V275H829.446V272.52H831.806V275H834.046V277.1H831.826V281.98C831.826 282.54 831.886 282.64 832.306 282.64ZM835.905 270.3H838.265V273.12H835.905V270.3ZM835.905 285V275H838.265V285H835.905ZM839.47 275H841.93L844.23 282.4H844.63L846.93 275H849.39L846.15 285H842.71L839.47 275ZM854.748 274.46C857.828 274.46 859.868 276.7 859.868 280.06V280.76H852.127C852.127 282.14 853.168 283.06 854.748 283.06C855.808 283.06 856.788 282.58 857.188 281.86L859.448 282.54C858.688 284.24 856.808 285.36 854.748 285.36C851.648 285.36 849.588 283.12 849.588 279.76C849.588 276.58 851.648 274.46 854.748 274.46ZM852.108 278.86H857.348C857.348 277.6 856.308 276.76 854.728 276.76C853.148 276.76 852.108 277.6 852.108 278.86ZM872.618 274.46C875.478 274.46 877.578 276.64 877.578 279.92C877.578 283.18 875.478 285.36 872.638 285.36C871.458 285.36 870.318 284.64 869.818 283.56H869.418V289.28H867.058V275H869.418V276.1H869.818C870.398 275.12 871.518 274.46 872.618 274.46ZM869.418 279.92C869.418 281.82 870.558 283.1 872.278 283.1C873.998 283.1 875.138 281.82 875.138 279.92C875.138 278.02 873.998 276.74 872.278 276.74C870.558 276.74 869.418 278.02 869.418 279.92ZM883.477 275H885.597V277.3H883.677C882.157 277.3 881.137 278.74 881.137 280.92V285H878.777V275H881.137V276.1H881.537C881.977 275.44 882.757 275 883.477 275ZM887.195 270.3H889.555V273.12H887.195V270.3ZM887.195 285V275H889.555V285H887.195ZM893.199 279.9C893.199 281.8 894.339 283.06 896.039 283.06C897.219 283.06 898.219 282.3 898.519 281.14H900.959C900.479 283.68 898.499 285.36 896.039 285.36C892.879 285.36 890.759 283.18 890.759 279.9C890.759 276.64 892.879 274.46 896.039 274.46C898.499 274.46 900.479 276.14 900.959 278.68H898.519C898.219 277.52 897.219 276.76 896.039 276.76C894.339 276.76 893.199 278.02 893.199 279.9ZM901.96 270.3H904.32V273.12H901.96V270.3ZM901.96 285V275H904.32V285H901.96ZM905.925 275H908.285V276.1H908.685C909.145 275.12 910.245 274.46 911.425 274.46C913.925 274.46 915.605 276.24 915.605 278.92L915.625 285H913.265L913.245 278.9C913.245 277.62 912.365 276.76 911.045 276.76C909.385 276.76 908.285 278 908.285 279.86V285H905.925V275ZM921.654 274.46C922.814 274.46 923.894 275.12 924.354 276.1H924.754V274.5H927.114V284.48C927.114 288.04 925.074 290.42 921.994 290.42C919.234 290.42 917.394 288.96 917.394 286.78L919.694 286.8C919.694 287.6 920.614 288.12 922.014 288.12C923.654 288.12 924.754 286.88 924.754 285V283.56H924.354C923.874 284.64 922.754 285.36 921.554 285.36C918.714 285.36 916.834 283.16 916.834 279.84C916.834 276.62 918.754 274.46 921.654 274.46ZM919.274 279.9C919.274 281.8 920.374 283.06 922.034 283.06C923.674 283.06 924.754 281.8 924.754 279.9C924.754 278 923.674 276.74 922.034 276.74C920.374 276.74 919.274 278 919.274 279.9ZM928.918 282.38H931.538V285C931.538 286.64 930.678 287.24 929.278 287.24H928.918V285.78H929.278C929.918 285.78 930.078 285.62 930.078 285H928.918V282.38ZM944.183 274.46C946.743 274.46 948.463 275.9 948.463 278.06V282.42C948.463 282.8 948.543 282.78 948.683 282.78H949.043V285C947.163 285 946.343 285 946.343 283.6V283.56H945.943C945.383 284.64 944.143 285.36 942.863 285.36C940.623 285.36 939.143 284.1 939.143 282.2C939.143 280.86 939.843 279.36 943.523 278.92L946.363 278.58V278.06C946.363 277.28 945.483 276.76 944.183 276.76C943.083 276.76 942.223 277.2 942.003 277.84H939.563C939.903 275.82 941.743 274.46 944.183 274.46ZM941.583 282.1C941.583 282.96 942.543 283.42 943.983 283.24C945.403 283.08 946.343 282.28 946.343 281.26V280.26L943.583 280.66C941.963 280.88 941.583 281.5 941.583 282.1ZM950.437 275H952.797V276.1H953.197C953.657 275.12 954.757 274.46 955.937 274.46C958.437 274.46 960.117 276.24 960.117 278.92L960.137 285H957.777L957.757 278.9C957.757 277.62 956.877 276.76 955.557 276.76C953.897 276.76 952.797 278 952.797 279.86V285H950.437V275ZM971.805 270.72V285H969.445V283.56H969.045C968.525 284.64 967.345 285.36 966.085 285.36C963.245 285.36 961.345 283.18 961.345 279.9C961.345 276.64 963.185 274.46 965.965 274.46C967.265 274.46 968.505 275.12 969.045 276.1H969.445V270.72H971.805ZM963.785 279.9C963.785 281.8 964.905 283.08 966.605 283.08C968.305 283.08 969.445 281.8 969.445 279.9C969.445 278 968.305 276.72 966.605 276.72C964.905 276.72 963.785 278 963.785 279.9ZM984.962 274.46C987.822 274.46 989.922 276.64 989.922 279.92C989.922 283.18 987.822 285.36 984.982 285.36C983.802 285.36 982.662 284.64 982.162 283.56H981.762V289.28H979.402V275H981.762V276.1H982.162C982.742 275.12 983.862 274.46 984.962 274.46ZM981.762 279.92C981.762 281.82 982.902 283.1 984.622 283.1C986.342 283.1 987.482 281.82 987.482 279.92C987.482 278.02 986.342 276.74 984.622 276.74C982.902 276.74 981.762 278.02 981.762 279.92ZM995.82 275H997.94V277.3H996.02C994.5 277.3 993.48 278.74 993.48 280.92V285H991.12V275H993.48V276.1H993.88C994.32 275.44 995.1 275 995.82 275ZM998.728 279.9C998.728 276.64 1000.85 274.46 1004.05 274.46C1007.25 274.46 1009.37 276.64 1009.37 279.9C1009.37 283.18 1007.25 285.36 1004.05 285.36C1000.85 285.36 998.728 283.18 998.728 279.9ZM1001.17 279.9C1001.17 281.8 1002.33 283.06 1004.05 283.06C1005.77 283.06 1006.93 281.8 1006.93 279.9C1006.93 278.02 1005.77 276.76 1004.05 276.76C1002.33 276.76 1001.17 278.02 1001.17 279.9ZM1020.63 270.72V285H1018.27V283.56H1017.87C1017.35 284.64 1016.17 285.36 1014.91 285.36C1012.07 285.36 1010.17 283.18 1010.17 279.9C1010.17 276.64 1012.01 274.46 1014.79 274.46C1016.09 274.46 1017.33 275.12 1017.87 276.1H1018.27V270.72H1020.63ZM1012.61 279.9C1012.61 281.8 1013.73 283.08 1015.43 283.08C1017.13 283.08 1018.27 281.8 1018.27 279.9C1018.27 278 1017.13 276.72 1015.43 276.72C1013.73 276.72 1012.61 278 1012.61 279.9ZM1029.17 275H1031.53V285H1029.17V283.56H1028.77C1028.35 284.64 1027.27 285.36 1026.05 285.36C1023.51 285.36 1021.83 283.68 1021.83 281.16V275H1024.19V280.78C1024.19 282.14 1025.13 283.06 1026.55 283.06C1028.13 283.06 1029.17 282 1029.17 280.42V275ZM1034.98 279.9C1034.98 281.8 1036.12 283.06 1037.82 283.06C1039 283.06 1040 282.3 1040.3 281.14H1042.74C1042.26 283.68 1040.28 285.36 1037.82 285.36C1034.66 285.36 1032.54 283.18 1032.54 279.9C1032.54 276.64 1034.66 274.46 1037.82 274.46C1040.28 274.46 1042.26 276.14 1042.74 278.68H1040.3C1040 277.52 1039 276.76 1037.82 276.76C1036.12 276.76 1034.98 278.02 1034.98 279.9ZM1048.3 282.64H1050.3V285H1048.5C1045.76 285 1045.46 283.86 1045.46 282.06V277.1H1043.54V275H1045.44V272.52H1047.8V275H1050.04V277.1H1047.82V281.98C1047.82 282.54 1047.88 282.64 1048.3 282.64ZM1062.66 274.46C1065.74 274.46 1067.78 276.7 1067.78 280.06V280.76H1060.04C1060.04 282.14 1061.08 283.06 1062.66 283.06C1063.72 283.06 1064.7 282.58 1065.1 281.86L1067.36 282.54C1066.6 284.24 1064.72 285.36 1062.66 285.36C1059.56 285.36 1057.5 283.12 1057.5 279.76C1057.5 276.58 1059.56 274.46 1062.66 274.46ZM1060.02 278.86H1065.26C1065.26 277.6 1064.22 276.76 1062.64 276.76C1061.06 276.76 1060.02 277.6 1060.02 278.86ZM1067.99 275H1070.55L1072.57 278.42H1072.97L1075.25 275H1077.83L1074.73 279.86V280.06L1077.83 285H1075.25L1072.97 281.28H1072.57L1070.55 285H1067.97L1070.73 280.06V279.86L1067.99 275ZM1080.88 279.9C1080.88 281.8 1082.02 283.06 1083.72 283.06C1084.9 283.06 1085.9 282.3 1086.2 281.14H1088.64C1088.16 283.68 1086.18 285.36 1083.72 285.36C1080.56 285.36 1078.44 283.18 1078.44 279.9C1078.44 276.64 1080.56 274.46 1083.72 274.46C1086.18 274.46 1088.16 276.14 1088.64 278.68H1086.2C1085.9 277.52 1084.9 276.76 1083.72 276.76C1082.02 276.76 1080.88 278.02 1080.88 279.9ZM1094.59 274.46C1097.67 274.46 1099.71 276.7 1099.71 280.06V280.76H1091.97C1091.97 282.14 1093.01 283.06 1094.59 283.06C1095.65 283.06 1096.63 282.58 1097.03 281.86L1099.29 282.54C1098.53 284.24 1096.65 285.36 1094.59 285.36C1091.49 285.36 1089.43 283.12 1089.43 279.76C1089.43 276.58 1091.49 274.46 1094.59 274.46ZM1091.95 278.86H1097.19C1097.19 277.6 1096.15 276.76 1094.57 276.76C1092.99 276.76 1091.95 277.6 1091.95 278.86ZM1100.91 270.72H1103.27V285H1100.91V270.72ZM1104.87 270.72H1107.23V285H1104.87V270.72ZM1113.6 274.46C1116.68 274.46 1118.72 276.7 1118.72 280.06V280.76H1110.98C1110.98 282.14 1112.02 283.06 1113.6 283.06C1114.66 283.06 1115.64 282.58 1116.04 281.86L1118.3 282.54C1117.54 284.24 1115.66 285.36 1113.6 285.36C1110.5 285.36 1108.44 283.12 1108.44 279.76C1108.44 276.58 1110.5 274.46 1113.6 274.46ZM1110.96 278.86H1116.2C1116.2 277.6 1115.16 276.76 1113.58 276.76C1112 276.76 1110.96 277.6 1110.96 278.86ZM1119.91 275H1122.27V276.1H1122.67C1123.13 275.12 1124.23 274.46 1125.41 274.46C1127.91 274.46 1129.59 276.24 1129.59 278.92L1129.61 285H1127.25L1127.23 278.9C1127.23 277.62 1126.35 276.76 1125.03 276.76C1123.37 276.76 1122.27 278 1122.27 279.86V285H1119.91V275ZM1133.26 279.9C1133.26 281.8 1134.4 283.06 1136.1 283.06C1137.28 283.06 1138.28 282.3 1138.58 281.14H1141.02C1140.54 283.68 1138.56 285.36 1136.1 285.36C1132.94 285.36 1130.82 283.18 1130.82 279.9C1130.82 276.64 1132.94 274.46 1136.1 274.46C1138.56 274.46 1140.54 276.14 1141.02 278.68H1138.58C1138.28 277.52 1137.28 276.76 1136.1 276.76C1134.4 276.76 1133.26 278.02 1133.26 279.9ZM1146.97 274.46C1150.05 274.46 1152.09 276.7 1152.09 280.06V280.76H1144.35C1144.35 282.14 1145.39 283.06 1146.97 283.06C1148.03 283.06 1149.01 282.58 1149.41 281.86L1151.67 282.54C1150.91 284.24 1149.03 285.36 1146.97 285.36C1143.87 285.36 1141.81 283.12 1141.81 279.76C1141.81 276.58 1143.87 274.46 1146.97 274.46ZM1144.33 278.86H1149.57C1149.57 277.6 1148.53 276.76 1146.95 276.76C1145.37 276.76 1144.33 277.6 1144.33 278.86ZM1153.49 282.38H1156.11V285H1153.49V282.38Z" fill="#EAEAF1"/>
</g>
<defs>
<clipPath id="clip0_275_24">
<rect width="1367" height="401" fill="white"/>
</clipPath>
<clipPath id="clip1_275_24">
<rect width="1440" height="401" fill="white" transform="translate(-33)"/>
</clipPath>
</defs>
</svg>
