<svg width="538" height="538" viewBox="0 0 538 538" fill="none" xmlns="http://www.w3.org/2000/svg">
<g style="mix-blend-mode:multiply" opacity="0.4" clip-path="url(#clip0_465_201)">
<path d="M966.07 1528.44C961.723 1513.41 952.364 1499.89 941.777 1488.29C918.405 1462.86 888.384 1444.65 864.193 1420C840.003 1395.35 821.438 1360.14 830.132 1326.49C834.888 1308.13 847.469 1291.59 847.367 1272.6C847.265 1252.32 832.331 1234.79 815.147 1224.55C797.912 1214.25 778.222 1209.36 759.759 1201.66C716.492 1183.51 690.46 1152.51 663.866 1115.17C639.317 1080.64 608.478 1052.76 564.904 1048.39C554.982 1047.4 544.651 1047.56 535.599 1043.4C510.437 1031.75 508.902 995.183 489.57 975.159C476.631 961.74 456.89 957.06 443.593 943.953C418.43 919.144 424.721 873.844 400.939 847.631C386.312 831.508 363.758 826.411 344.375 816.841C324.992 807.271 306.222 787.247 312.001 766.131C315.07 754.949 324.276 746.836 332.868 739.19C355.933 718.698 379.715 691.445 374.549 660.759C370.509 636.731 349.847 619.567 338.903 597.879C315.735 551.903 334.556 483.822 292.925 454.176C274.36 440.965 247.357 439.561 234.622 420.526C228.638 411.632 227.155 400.502 224.035 390.204C221.274 381.05 217.029 372.468 211.608 364.667C200.868 349.116 177.546 364.355 186.957 380.842L208.13 417.873C214.318 428.639 220.609 439.665 229.866 447.883C247.868 463.902 275.23 467.855 289.754 487.202C309.649 513.675 294.92 552.735 305.302 584.357C316.553 618.579 356.956 644.324 349.745 679.639C342.022 717.398 284.486 729.308 280.804 767.744C278.554 791.356 298.909 810.704 319.213 822.406C339.516 834.108 362.889 843.626 374.959 863.91C392.859 894.024 380.431 939.428 406.667 962.417C419.76 973.911 438.325 975.419 454.639 981.296C487.524 993.154 512.175 1025.66 515.091 1061.03C516.471 1077.88 513.352 1095.35 518.517 1111.48C525.473 1133.37 545.725 1147.52 564.75 1160C626.122 1200.41 687.494 1240.88 748.866 1281.29C758.225 1287.48 768.658 1293.93 779.756 1292.52C790.854 1291.12 800.367 1277.18 793.616 1268.18C789.729 1262.98 782.62 1261.84 776.278 1260.75C743.342 1255.18 711.889 1240.83 685.96 1219.5C656.91 1195.63 634.049 1162.81 600.039 1147.1C586.026 1140.65 570.581 1137.38 557.232 1129.58C543.884 1121.77 532.326 1107.52 534.218 1091.97C537.082 1068.15 569.558 1059.26 590.68 1070.03C611.802 1080.79 624.383 1102.9 638.192 1122.4C674.197 1173.42 725.749 1213 783.899 1234.22C799.855 1240.05 818.42 1246.49 824.199 1262.72C831.462 1283.21 813.459 1303.03 806.044 1323.42C792.184 1361.85 817.602 1403.67 847.674 1430.92C877.746 1458.17 914.518 1479.71 934.617 1515.23C940.294 1525.32 944.539 1536.87 942.954 1548.36C941.368 1559.85 932.469 1570.88 921.064 1571.56C906.898 1572.44 896.618 1558.66 889.1 1546.44C859.59 1498.53 830.081 1450.63 800.52 1402.73C777.045 1364.61 751.269 1324.41 710.866 1306.05C693.478 1298.14 673.839 1294.6 658.7 1282.8C641.005 1268.96 629.395 1244.05 607.25 1241.24C587.407 1238.69 568.024 1256.01 548.794 1250.5C534.218 1246.29 526.189 1230.74 520.307 1216.54C491.104 1146.32 470.596 1068.62 416.691 1015.62C406.872 1005.95 395.16 996.899 381.505 995.807C367.85 994.715 352.66 1004.8 352.814 1018.69C352.865 1025.87 356.854 1032.42 361.099 1038.14C361.201 1038.3 361.354 1038.46 361.457 1038.61C368.668 1048.18 383.039 1037.88 376.646 1027.74C373.885 1023.32 377.976 1017.81 382.886 1019.26C392.654 1022.12 401.4 1031.07 408.099 1039.6C451.52 1094.99 483.024 1160.05 499.697 1228.81C504.811 1249.88 512.175 1275.36 532.94 1280.35C547.055 1283.79 561.58 1275.62 576.053 1276.5C595.999 1277.75 610.626 1295.07 627.094 1306.62C659.058 1328.98 702.325 1330.75 732.5 1355.56C753.673 1372.98 765.436 1399.25 778.631 1423.43C803.18 1468.37 834.99 1508.73 866.648 1548.83C885.929 1573.27 914.467 1600.47 943.005 1588.77C961.058 1581.39 970.468 1559.54 968.423 1539.88C967.911 1536.09 967.144 1532.18 966.07 1528.44Z" fill="#EAEAF1"/>
<path d="M895.852 534.324C898.051 509.62 876.827 488.295 854.375 478.102C831.514 467.752 805.84 464.371 783.951 451.993C753.726 434.933 734.138 402.739 704.321 384.952C687.393 374.862 667.652 369.765 651.849 357.907C621.316 335.022 611.292 291.802 581.629 267.722C563.218 252.795 537.032 244.681 528.287 222.421C526.292 217.376 525.679 210.927 529.514 207.13C532.02 204.634 535.754 204.009 539.232 203.697C576.31 200.213 612.775 218.468 640.29 244.005C667.805 269.542 688.058 301.944 708.873 333.41C727.182 361.027 746.617 388.593 771.575 409.865C776.996 414.493 784.77 408.096 781.445 401.699C781.394 401.647 781.394 401.595 781.343 401.543C756.385 354.214 722.528 312.502 688.876 271.154C670.772 248.894 652.207 226.218 628.272 210.719C601.422 193.347 569.304 186.066 537.544 183.466C526.957 182.633 514.018 183.517 508.955 193.035C506.756 197.248 506.705 202.293 507.216 207.026C510.029 231.471 526.804 251.755 544.704 268.294C562.604 284.833 582.703 299.656 595.898 320.252C606.076 336.167 611.855 355.046 624.436 369.089C649.189 396.81 692.2 398.422 715.419 427.704C743.395 462.967 784.667 470.248 824.559 485.799C830.696 488.191 836.731 490.792 842.612 493.757C853.915 499.478 865.064 507.227 870.23 518.981C875.344 530.684 871.917 547.015 860.308 552.06C852.688 555.388 843.84 553.204 836.322 549.719C820.928 542.646 808.346 530.632 794.64 520.542C766.818 500.05 734.138 487.359 705.549 467.96C675.323 447.416 650.212 419.746 619.526 399.879C598.711 386.408 575.39 376.474 557.183 359.571C505.528 311.514 508.495 220.705 453.311 176.86C433.979 161.517 409.84 154.08 386.16 147.475C377.875 145.134 365.55 145.446 364.629 154.184C364.373 156.836 365.243 159.489 366.879 161.569C381.762 180.657 406.822 186.222 426.87 198.964C486.554 236.828 491.055 328.053 545.624 373.146C559.638 384.744 576.208 392.545 591.858 401.699C624.027 420.475 652.616 444.867 682.125 467.752C727.131 502.598 774.643 533.96 822.155 565.27C839.288 576.608 857.29 588.831 866.087 607.606C872.531 621.389 873.298 637.2 872.378 652.387C871.048 674.543 866.394 696.491 858.671 717.243C856.83 722.184 854.938 728.113 858.006 732.378C860.973 736.539 867.417 736.539 871.662 733.73C875.855 730.922 878.31 726.085 880.356 721.404C894.216 689.73 897.745 653.531 890.278 619.724C886.851 604.278 881.174 588.623 883.885 573.072C886.135 560.069 894.062 548.575 895.648 535.468C895.75 535.156 895.801 534.74 895.852 534.324Z" fill="#EAEAF1"/>
<path d="M966.07 904.322C961.723 889.291 952.364 875.769 941.777 864.171C918.405 838.738 888.384 820.534 864.193 795.882C840.003 771.229 821.438 736.018 830.132 702.368C834.888 684.008 847.469 667.469 847.367 648.486C847.265 628.202 832.331 610.674 815.147 600.428C797.912 590.13 778.222 585.242 759.759 577.544C716.492 559.393 690.46 528.395 663.866 491.052C639.317 456.517 608.478 428.64 564.904 424.271C554.982 423.283 544.651 423.439 535.599 419.278C510.437 407.628 508.902 371.065 489.57 351.041C476.631 337.622 456.89 332.942 443.593 319.835C418.43 295.026 424.721 249.726 400.939 223.513C386.312 207.39 363.758 202.293 344.375 192.723C324.992 183.153 306.222 163.129 312.001 142.013C315.07 130.831 324.276 122.718 332.868 115.072C355.933 94.5803 379.715 67.3271 374.549 36.6413C370.509 12.6127 349.847 -4.55054 338.903 -26.2386C315.735 -72.2154 334.556 -140.296 292.925 -169.942C274.36 -183.152 247.357 -184.557 234.622 -203.592C228.638 -212.486 227.155 -223.616 224.035 -233.914C221.274 -243.068 217.029 -251.65 211.608 -259.451C200.868 -275.002 177.546 -259.763 186.957 -243.276L208.13 -206.245C214.318 -195.479 220.609 -184.453 229.866 -176.235C247.868 -160.216 275.23 -156.263 289.754 -136.916C309.649 -110.443 294.92 -71.3832 305.302 -39.7612C316.553 -5.53873 356.956 20.2061 349.745 55.5209C342.022 93.2801 284.486 105.19 280.804 143.626C278.554 167.238 298.909 186.586 319.213 198.288C339.516 209.99 362.889 219.508 374.959 239.792C392.859 269.906 380.431 315.31 406.667 338.299C419.76 349.793 438.325 351.301 454.639 357.178C487.524 369.036 512.175 401.543 515.091 436.909C516.471 453.761 513.352 471.236 518.517 487.359C525.473 509.255 545.725 523.402 564.75 535.884C626.122 576.296 687.494 616.76 748.866 657.171C758.225 663.36 768.658 669.81 779.756 668.405C790.854 667.001 800.367 653.063 793.616 644.065C789.729 638.864 782.62 637.72 776.278 636.627C743.342 631.062 711.889 616.708 685.96 595.384C656.91 571.511 634.049 538.693 600.039 522.986C586.026 516.537 570.581 513.26 557.232 505.458C543.884 497.657 532.326 483.406 534.218 467.855C537.082 444.035 569.558 435.141 590.68 445.907C611.802 456.673 624.383 478.777 638.192 498.281C674.197 549.303 725.749 588.882 783.899 610.102C799.855 615.927 818.42 622.377 824.199 638.604C831.462 659.096 813.459 678.911 806.044 699.299C792.184 737.735 817.602 779.551 847.674 806.804C877.746 834.057 914.518 855.589 934.617 891.112C940.294 901.202 944.539 912.748 942.954 924.242C941.368 935.736 932.469 946.762 921.064 947.49C906.898 948.375 896.618 934.592 889.1 922.37C859.59 874.469 830.081 826.567 800.52 778.666C777.045 740.543 751.269 700.339 710.866 681.98C693.478 674.074 673.839 670.538 658.7 658.732C641.005 644.897 629.395 619.984 607.25 617.176C587.407 614.627 568.024 631.946 548.794 626.433C534.218 622.221 526.189 606.67 520.307 592.471C491.104 522.258 470.596 444.555 416.691 391.557C406.872 381.883 395.16 372.833 381.505 371.741C367.85 370.649 352.66 380.739 352.814 394.625C352.865 401.803 356.854 408.356 361.099 414.077C361.201 414.233 361.354 414.389 361.457 414.545C368.668 424.115 383.039 413.817 376.646 403.675C373.885 399.254 377.976 393.741 382.886 395.198C392.654 398.058 401.4 407.004 408.099 415.533C451.52 470.924 483.024 535.988 499.697 604.745C504.811 625.809 512.175 651.294 532.94 656.287C547.055 659.72 561.58 651.554 576.053 652.438C595.999 653.687 610.626 671.006 627.094 682.552C659.058 704.916 702.325 706.685 732.5 731.493C753.673 748.917 765.436 775.182 778.631 799.366C803.18 844.303 834.99 884.663 866.648 924.762C885.929 949.207 914.467 976.408 943.005 964.706C961.058 957.32 970.468 935.476 968.423 915.817C967.911 911.968 967.144 908.067 966.07 904.322Z" fill="#EAEAF1"/>
<path d="M1078.38 579.157C1075.77 562.617 1067.85 546.702 1057.62 533.388C1042.84 514.092 1023.61 498.905 1005.66 482.626C952.108 433.945 909.302 373.873 854.63 326.44C806.044 284.312 748.354 252.378 707.235 202.709C686.727 177.9 670.157 148.619 643.511 130.831C602.341 103.422 548.18 110.443 500.413 122.51C483.893 126.671 466.556 131.299 450.19 126.619C433.824 121.886 419.913 103.734 426.153 87.6632C432.29 71.8522 452.901 67.8994 469.369 70.9159C469.522 70.968 469.676 70.968 469.88 71.02C482.768 73.4645 491.002 57.4454 481.541 48.1877C460.316 27.4357 441.752 3.92723 426.511 -21.6616C422.522 -28.3189 418.635 -35.2882 414.595 -42.2575C406.463 -56.2482 385.494 -45.8462 391.324 -30.7634C402.576 -1.37778 407.946 29.1 400.07 59.2657C394.802 79.3415 384.113 101.706 394.904 119.337C400.684 128.751 411.27 133.848 421.499 137.749C462.72 153.56 507.726 159.125 551.453 153.82C578.815 150.491 607.967 143.262 632.822 155.38C651.745 164.586 664.122 183.309 676.345 200.629C696.598 229.234 719.305 256.539 746.462 278.643C759.503 289.253 773.977 300.019 789.678 306.053C804.816 311.826 813.459 319.523 825.478 331.069C884.037 387.292 940.601 445.647 995.12 505.979C1013.12 525.898 1030.87 545.974 1048.36 566.31C1053.93 572.759 1059.46 579.209 1064.93 585.658C1069.99 591.587 1079.61 587.114 1078.38 579.365C1078.38 579.312 1078.38 579.261 1078.38 579.157Z" fill="#EAEAF1"/>
<path d="M352.303 904.323C347.956 889.292 338.596 875.769 328.01 864.171C304.637 838.738 274.616 820.535 250.426 795.882C226.235 771.229 207.67 736.019 216.364 702.368C221.121 684.009 233.702 667.47 233.6 648.486C233.497 628.202 218.564 610.675 201.379 600.429C184.195 590.183 164.454 585.242 145.992 577.544C102.724 559.393 76.6927 528.395 50.0983 491.052C25.5496 456.517 -5.2897 428.64 -48.8636 424.271C-58.7854 423.283 -69.1163 423.439 -78.1686 419.278C-103.331 407.628 -104.865 371.065 -124.197 351.041C-137.137 337.623 -156.878 332.942 -170.175 319.836C-195.337 295.027 -189.047 249.726 -212.828 223.513C-227.455 207.39 -250.009 202.293 -269.393 192.723C-288.776 183.154 -307.545 163.13 -301.766 142.014C-298.698 130.832 -289.492 122.718 -280.9 115.073C-257.834 94.5807 -234.053 67.3275 -239.218 36.6416C-243.258 12.613 -263.92 -4.55017 -274.865 -26.2383C-298.033 -72.215 -279.212 -140.296 -320.842 -169.942C-339.407 -183.152 -366.411 -184.556 -379.146 -203.592C-385.129 -212.486 -386.612 -223.616 -389.732 -233.914C-392.494 -243.068 -396.739 -251.649 -402.16 -259.451C-412.9 -275.002 -436.221 -259.763 -426.811 -243.276L-405.638 -206.245C-399.449 -195.479 -393.159 -184.452 -383.902 -176.235C-365.9 -160.216 -338.538 -156.263 -324.013 -136.915C-304.119 -110.442 -318.848 -71.3829 -308.466 -39.7608C-297.214 -5.53836 -256.811 20.2065 -264.023 55.5212C-271.745 93.2804 -329.281 105.191 -332.963 143.626C-335.214 167.238 -314.859 186.586 -294.555 198.288C-274.251 209.991 -250.879 219.508 -238.809 239.792C-220.909 269.906 -233.337 315.311 -207.1 338.299C-194.008 349.793 -175.443 351.302 -159.128 357.179C-126.243 369.037 -101.592 401.543 -98.6769 436.91C-97.2961 453.761 -100.416 471.236 -95.2504 487.359C-88.2949 509.256 -68.0423 523.402 -49.017 535.885C12.3547 576.296 73.7263 616.76 135.098 657.172C144.457 663.361 154.89 669.81 165.988 668.406C177.087 667.001 186.599 653.063 179.848 644.065C175.961 638.864 168.852 637.72 162.511 636.628C129.575 631.063 98.1216 616.708 72.1921 595.384C43.1428 571.511 20.2818 538.693 -13.7283 522.986C-27.7415 516.537 -43.1867 513.26 -56.5351 505.459C-69.8834 497.709 -81.4417 483.407 -79.5495 467.856C-76.6855 444.035 -44.2096 435.141 -23.0875 445.908C-1.96539 456.674 10.6158 478.778 24.4244 498.281C60.4291 549.303 111.981 588.883 170.131 610.103C186.088 615.928 204.653 622.377 210.432 638.604C217.694 659.096 199.692 678.912 192.276 699.3C178.416 737.735 203.834 779.551 233.906 806.804C263.979 834.057 300.75 855.589 320.85 891.112C326.527 901.202 330.771 912.748 329.186 924.242C327.601 935.737 318.702 946.763 307.297 947.491C293.13 948.375 282.85 934.592 275.332 922.37C245.823 874.469 216.313 826.568 186.753 778.667C163.278 740.543 137.502 700.34 97.0988 681.98C79.7101 674.075 60.0712 670.538 44.9328 658.732C27.2373 644.897 15.6278 619.984 -6.51715 617.176C-26.3607 614.628 -45.7439 631.947 -64.9737 626.434C-79.5495 622.221 -87.5789 606.67 -93.4604 592.471C-122.663 522.258 -143.171 444.555 -197.076 391.557C-206.896 381.883 -218.607 372.834 -232.263 371.741C-245.918 370.649 -261.107 380.739 -260.954 394.626C-260.903 401.803 -256.914 408.356 -252.669 414.077C-252.566 414.233 -252.413 414.39 -252.311 414.546C-245.1 424.115 -230.728 413.817 -237.121 403.675C-239.883 399.255 -235.792 393.742 -230.882 395.198C-221.113 398.058 -212.368 407.004 -205.668 415.534C-162.248 470.924 -130.744 535.989 -114.071 604.746C-108.957 625.81 -101.592 651.295 -80.828 656.288C-66.7126 659.72 -52.1879 651.555 -37.7144 652.439C-17.7686 653.687 -3.14166 671.006 13.3264 682.552C45.2908 704.917 88.5579 706.685 118.732 731.494C139.906 748.917 151.668 775.182 164.863 799.367C189.412 844.303 221.223 884.663 252.881 924.763C272.162 949.207 300.699 976.408 329.237 964.706C347.291 957.321 356.701 935.477 354.655 915.817C354.195 911.968 353.428 908.067 352.303 904.323Z" fill="#EAEAF1"/>
<path d="M464.665 579.157C462.056 562.617 454.129 546.702 443.901 533.388C429.12 514.092 409.891 498.905 391.939 482.626C338.392 433.945 295.586 373.873 240.914 326.44C192.328 284.312 134.638 252.378 93.5194 202.709C73.0111 177.9 56.4407 148.619 29.7952 130.831C-11.375 103.422 -65.5355 110.443 -113.303 122.51C-129.822 126.671 -147.16 131.299 -163.526 126.619C-179.891 121.886 -193.802 103.734 -187.563 87.6632C-181.426 71.8522 -160.815 67.8994 -144.347 70.9159C-144.194 70.968 -144.04 70.968 -143.836 71.02C-130.948 73.4645 -122.713 57.4454 -132.175 48.1877C-153.399 27.4357 -171.964 3.92723 -187.205 -21.6616C-191.194 -28.3189 -195.081 -35.2882 -199.121 -42.2575C-207.253 -56.2482 -228.222 -45.8462 -222.391 -30.7634C-211.14 -1.37778 -205.77 29.1 -213.646 59.2657C-218.914 79.3415 -229.603 101.706 -218.811 119.337C-213.032 128.751 -202.446 133.848 -192.217 137.749C-150.996 153.56 -105.99 159.125 -62.2624 153.82C-34.9008 150.491 -5.74927 143.262 19.1063 155.38C38.0292 164.586 50.4058 183.309 62.629 200.629C82.8817 229.234 105.589 256.539 132.746 278.643C145.788 289.253 160.261 300.019 175.962 306.053C191.1 311.826 199.744 319.523 211.762 331.069C270.321 387.292 326.885 445.647 381.404 505.979C399.406 525.898 417.153 545.974 434.644 566.31C440.218 572.759 445.742 579.209 451.214 585.658C456.277 591.587 465.892 587.114 464.665 579.365C464.665 579.312 464.665 579.261 464.665 579.157Z" fill="#EAEAF1"/>
<path d="M352.303 280.204C347.956 265.173 338.596 251.65 328.01 240.052C304.637 214.619 274.616 196.416 250.426 171.763C226.235 147.111 207.67 111.9 216.364 78.2495C221.121 59.89 233.702 43.3508 233.6 24.3672C233.497 4.08337 218.564 -13.444 201.379 -23.6899C184.144 -33.9359 164.454 -38.8768 145.992 -46.5743C102.724 -64.7258 76.6927 -95.7236 50.0983 -133.067C25.5496 -167.601 -5.2897 -195.479 -48.8636 -199.847C-58.7854 -200.836 -69.1163 -200.68 -78.1686 -204.84C-103.331 -216.491 -104.865 -253.054 -124.197 -273.077C-137.137 -286.496 -156.878 -291.177 -170.175 -304.283C-195.337 -329.092 -189.047 -374.393 -212.828 -400.606C-227.455 -416.729 -250.009 -421.826 -269.393 -431.395C-288.776 -440.965 -307.545 -460.989 -301.766 -482.105C-298.698 -493.287 -289.492 -501.401 -280.9 -509.046C-257.834 -529.538 -234.053 -556.791 -239.218 -587.477C-243.258 -611.506 -263.92 -628.669 -274.865 -650.357C-298.033 -696.334 -279.212 -764.415 -320.842 -794.06C-339.407 -807.271 -366.411 -808.675 -379.146 -827.711C-385.129 -836.604 -386.612 -847.735 -389.732 -858.033C-392.545 -867.134 -396.739 -875.716 -402.16 -883.517C-412.9 -899.068 -436.221 -883.829 -426.811 -867.342L-405.638 -830.311C-399.449 -819.545 -393.159 -808.519 -383.902 -800.302C-365.9 -784.283 -338.538 -780.33 -324.013 -760.982C-304.119 -734.509 -318.848 -695.45 -308.466 -663.828C-297.214 -629.605 -256.811 -603.86 -264.023 -568.546C-271.745 -530.786 -329.281 -518.876 -332.963 -480.441C-335.214 -456.828 -314.859 -437.481 -294.555 -425.778C-274.251 -414.076 -250.879 -404.558 -238.809 -384.274C-220.909 -354.161 -233.337 -308.756 -207.1 -285.768C-194.008 -274.274 -175.443 -272.765 -159.128 -266.888C-126.243 -255.03 -101.592 -222.524 -98.6769 -187.157C-97.2961 -170.306 -100.416 -152.83 -95.2504 -136.707C-88.2949 -114.811 -68.0423 -100.665 -49.017 -88.1822C12.3547 -47.7705 73.7263 -7.30682 135.098 33.1049C144.457 39.2941 154.89 45.7433 165.988 44.339C177.087 42.9348 186.599 28.9961 179.848 19.9984C175.961 14.7974 168.852 13.6532 162.511 12.561C129.575 6.99591 98.1216 -7.35883 72.1921 -28.6829C43.1428 -52.5554 20.2818 -85.3737 -13.7283 -101.081C-27.7415 -107.53 -43.1867 -110.807 -56.5351 -118.608C-69.8834 -126.357 -81.4417 -140.66 -79.5495 -156.211C-76.6855 -180.032 -44.2096 -188.925 -23.0875 -178.159C-1.96539 -167.393 10.6158 -145.289 24.4244 -125.785C60.4291 -74.7636 111.981 -35.1841 170.131 -13.9641C186.088 -8.13898 204.653 -1.68976 210.432 14.5373C217.694 35.0292 199.692 54.845 192.276 75.2329C178.416 113.668 203.834 155.484 233.906 182.737C263.979 209.99 300.75 231.522 320.85 267.045C326.527 277.135 330.771 288.681 329.186 300.176C327.601 311.67 318.702 322.696 307.297 323.424C293.13 324.308 282.85 310.526 275.332 298.303C245.823 250.402 216.313 202.501 186.753 154.6C163.278 116.477 137.502 76.2731 97.0988 57.9136C79.7101 50.0081 60.0712 46.4714 44.9328 34.6652C27.2373 20.8306 15.6278 -4.08221 -6.51715 -6.89075C-26.3607 -9.43921 -45.7439 7.88013 -64.9737 2.36707C-79.5495 -1.84576 -87.5789 -17.3967 -93.4604 -31.5954C-122.663 -101.809 -143.171 -179.512 -197.076 -232.51C-206.896 -242.183 -218.607 -251.233 -232.263 -252.325C-245.918 -253.418 -261.107 -243.328 -260.954 -229.441C-260.903 -222.264 -256.914 -215.71 -252.669 -209.989C-252.566 -209.833 -252.413 -209.677 -252.311 -209.521C-245.1 -199.951 -230.728 -210.249 -237.121 -220.391C-239.883 -224.812 -235.792 -230.325 -230.882 -228.869C-221.113 -226.008 -212.368 -217.063 -205.668 -208.533C-162.248 -153.143 -130.744 -88.0782 -114.071 -19.3211C-108.957 1.74292 -101.592 27.2277 -80.828 32.2207C-66.7126 35.6533 -52.1879 27.4879 -37.7144 28.372C-17.7686 29.6202 -3.14166 46.9395 13.3264 58.4857C45.2908 80.8499 88.5579 82.6183 118.732 107.427C139.906 124.85 151.668 151.115 164.863 175.3C189.412 220.236 221.223 260.596 252.881 300.696C272.162 325.14 300.699 352.341 329.237 340.639C347.291 333.254 356.701 311.41 354.655 291.75C354.195 287.849 353.428 283.948 352.303 280.204Z" fill="#EAEAF1"/>
<path d="M282.134 534.324C284.334 509.62 263.109 488.295 240.657 478.102C217.796 467.752 192.123 464.371 170.233 451.993C140.008 434.933 120.42 402.739 90.6036 384.952C73.6753 374.862 53.9341 369.765 38.1309 357.907C7.59842 335.022 -2.42564 291.802 -32.0886 267.722C-50.5001 252.795 -76.6854 244.681 -85.4308 222.421C-87.4254 217.376 -88.0391 210.927 -84.2034 207.13C-81.6974 204.634 -77.964 204.009 -74.4862 203.697C-37.4075 200.213 -0.942474 218.468 26.5725 244.005C54.0875 269.542 74.3401 301.944 95.1554 333.41C113.465 361.027 132.899 388.593 157.857 409.865C163.278 414.493 171.052 408.096 167.727 401.699C167.676 401.647 167.676 401.595 167.625 401.543C142.667 354.214 108.811 312.502 75.1584 271.154C57.0538 248.894 38.4888 226.218 14.5539 210.719C-12.2962 193.347 -44.4141 186.066 -76.1739 183.466C-86.7606 182.633 -99.6998 183.517 -104.763 193.035C-106.962 197.248 -107.013 202.293 -106.502 207.026C-103.689 231.471 -86.914 251.755 -69.0139 268.294C-51.1138 284.833 -31.0146 299.656 -17.8197 320.252C-7.64223 336.167 -1.86307 355.046 10.7181 369.089C35.4714 396.81 78.4827 398.422 101.702 427.704C129.677 462.967 170.949 470.248 210.841 485.799C216.978 488.191 223.013 490.792 228.895 493.757C240.197 499.478 251.346 507.227 256.512 518.981C261.626 530.684 258.199 547.015 246.59 552.06C238.97 555.388 230.122 553.204 222.604 549.719C207.21 542.646 194.629 530.632 180.922 520.542C153.1 500.05 120.42 487.359 91.8311 467.96C61.6055 447.416 36.4943 419.746 5.80841 399.879C-15.0068 386.408 -38.3281 376.474 -56.535 359.571C-108.19 311.514 -105.223 220.705 -160.407 176.86C-179.739 161.517 -203.878 154.08 -227.557 147.475C-235.843 145.134 -248.168 145.446 -249.089 154.184C-249.344 156.836 -248.475 159.489 -246.838 161.569C-231.956 180.657 -206.896 186.222 -186.848 198.964C-127.164 236.828 -122.663 328.053 -68.0933 373.146C-54.0801 384.744 -37.5098 392.545 -21.86 401.699C10.309 420.475 38.898 444.867 68.4075 467.752C113.413 502.598 160.925 533.96 208.437 565.27C225.57 576.608 243.573 588.831 252.369 607.606C258.813 621.389 259.58 637.2 258.66 652.387C257.33 674.543 252.676 696.491 244.953 717.243C243.112 722.184 241.22 728.113 244.289 732.378C247.255 736.539 253.699 736.539 257.944 733.73C262.137 730.922 264.592 726.085 266.638 721.404C280.498 689.73 284.027 653.531 276.56 619.724C273.133 604.278 267.456 588.623 270.167 573.072C272.417 560.069 280.344 548.575 281.93 535.468C282.032 535.156 282.083 534.74 282.134 534.324Z" fill="#EAEAF1"/>
<path d="M464.665 579.157C462.056 562.617 454.129 546.702 443.901 533.388C429.12 514.092 409.891 498.905 391.939 482.626C338.392 433.945 295.586 373.873 240.914 326.44C192.328 284.312 134.638 252.378 93.5194 202.709C73.0111 177.9 56.4407 148.619 29.7952 130.831C-11.375 103.422 -65.5355 110.443 -113.303 122.51C-129.822 126.671 -147.16 131.299 -163.526 126.619C-179.891 121.886 -193.802 103.734 -187.563 87.6632C-181.426 71.8522 -160.815 67.8994 -144.347 70.9159C-144.194 70.968 -144.04 70.968 -143.836 71.02C-130.948 73.4645 -122.713 57.4454 -132.175 48.1877C-153.399 27.4357 -171.964 3.92723 -187.205 -21.6616C-191.194 -28.3189 -195.081 -35.2882 -199.121 -42.2575C-207.253 -56.2482 -228.222 -45.8462 -222.391 -30.7634C-211.14 -1.37778 -205.77 29.1 -213.646 59.2657C-218.914 79.3415 -229.603 101.706 -218.811 119.337C-213.032 128.751 -202.446 133.848 -192.217 137.749C-150.996 153.56 -105.99 159.125 -62.2624 153.82C-34.9008 150.491 -5.74927 143.262 19.1063 155.38C38.0292 164.586 50.4058 183.309 62.629 200.629C82.8817 229.234 105.589 256.539 132.746 278.643C145.788 289.253 160.261 300.019 175.962 306.053C191.1 311.826 199.744 319.523 211.762 331.069C270.321 387.292 326.885 445.647 381.404 505.979C399.406 525.898 417.153 545.974 434.644 566.31C440.218 572.759 445.742 579.209 451.214 585.658C456.277 591.587 465.892 587.114 464.665 579.365C464.665 579.312 464.665 579.261 464.665 579.157Z" fill="#EAEAF1"/>
</g>
<defs>
<clipPath id="clip0_465_201">
<rect width="538" height="538" fill="white"/>
</clipPath>
</defs>
</svg>
